<svg xmlns="http://www.w3.org/2000/svg" width="42.06" height="40.507" viewBox="0 0 42.06 40.507">
  <g id="Raggruppa_182" data-name="Raggruppa 182" transform="translate(-758.97 -983.993)">
    <path id="Icon_awesome-weight-hanging" data-name="Icon awesome-weight-hanging" d="M25.251,22.064,21.638,7.608A1.612,1.612,0,0,0,20.11,6.335H17.128a4.751,4.751,0,1,0-8.919,0H5.228A1.612,1.612,0,0,0,3.7,7.608L.085,22.064a2.553,2.553,0,0,0,2.292,3.273H22.96A2.553,2.553,0,0,0,25.251,22.064ZM12.668,6.334a1.584,1.584,0,1,1,1.584-1.584A1.586,1.586,0,0,1,12.668,6.334Z" transform="translate(758.97 993.139)" fill="#fff"/>
    <path id="Icon_awesome-ruler-horizontal" data-name="Icon awesome-ruler-horizontal" d="M40.5,9H33.875v4.032c0,.2-.252.367-.562.367h-.125c-.311,0-.562-.164-.562-.367V9h-5.5v4.032c0,.2-.252.367-.562.367h-.125c-.311,0-.562-.164-.562-.367V9H20.71v4.032c0,.2-.252.367-.562.367h-.125c-.311,0-.562-.164-.562-.367V9H14.625v4.032c0,.2-.252.367-.562.367h-.125c-.311,0-.562-.164-.562-.367V9h-5.5v4.032c0,.2-.252.367-.562.367H7.188c-.311,0-.562-.164-.562-.367V9H0c0,.025,0,.657,0,1.466v8.8c0,.81,1.008,1.466,2.25,1.466h36c1.242,0,2.25-.657,2.25-1.466V9.788S40.516,9.022,40.5,9Z" transform="translate(780.299 1024.5) rotate(-90)" fill="#fff"/>
  </g>
</svg>
