<svg id="Raggruppa_126" data-name="Raggruppa 126" xmlns="http://www.w3.org/2000/svg" xmlns:xlink="http://www.w3.org/1999/xlink" width="36.318" height="40.675" viewBox="0 0 36.318 40.675">
  <defs>
    <clipPath id="clip-path">
      <rect id="Rettangolo_176" data-name="Rettangolo 176" width="36.318" height="40.675" fill="#fff"/>
    </clipPath>
  </defs>
  <g id="Raggruppa_125" data-name="Raggruppa 125" clip-path="url(#clip-path)">
    <path id="Tracciato_134" data-name="Tracciato 134" d="M123.807,145.809a4.257,4.257,0,0,0-.342-.546q-3.294-3.859-6.6-7.709a.717.717,0,0,1-.06-.161h4.108v-7.606c.215-.023.374-.054.533-.055,1.6-.008,3.2,0,4.8-.026.468-.009.6.162.6.6-.007,2.206.009,4.413.016,6.619,0,.106,0,.213,0,.411H131c-.274.344-.43.552-.6.749q-3.11,3.652-6.221,7.3a3.265,3.265,0,0,0-.259.415Zm3.568-6.768c-.642,0-1.138-.03-1.629.008s-.607-.164-.6-.635c.024-2.186,0-4.373.017-6.56,0-.4-.12-.508-.5-.483a11.089,11.089,0,0,1-1.542,0c-.435-.033-.519.137-.515.535.018,2.2,0,4.41.019,6.615,0,.421-.122.555-.531.531-.5-.029-1-.007-1.654-.007l3.442,4.229,3.5-4.235" transform="translate(-94.678 -105.134)" fill="#fff"/>
    <path id="Tracciato_135" data-name="Tracciato 135" d="M1.653,1.739V3q0,16.907,0,33.815c0,.316.016.508.43.505q7.364-.036,14.728-.04c2.207,0,4.413.018,6.619-.013a1.4,1.4,0,0,1,1.327.687,11.732,11.732,0,0,0,.775.96H0V.066C.288.05.575.02.862.02Q9.44.011,18.017,0a1.949,1.949,0,0,1,1.532.649c3.482,3.539,7.009,7.032,10.5,10.558a1.435,1.435,0,0,1,.386.9c.032,3.42.022,6.84.039,10.26,0,.391-.132.5-.512.506-1.182.022-1.173.037-1.171-1.147,0-2.832-.01-5.663.01-8.494,0-.451-.14-.555-.567-.554-3.236.015-6.472.009-9.709.006-.758,0-.744-.005-.744-.743,0-3.254-.012-6.509-.008-9.763,0-.333-.052-.493-.445-.492Q9.665,1.707,2,1.7c-.088,0-.177.02-.344.041M19.479,3.2V11h8.031L19.479,3.2" transform="translate(0 0)" fill="#fff"/>
    <path id="Tracciato_136" data-name="Tracciato 136" d="M57.139,75.988c-.813,1.351-1.542,2.579-2.288,3.8-.69,1.128-1.384,2.255-2.106,3.362-.223.341-.094.577.074.851q2.117,3.452,4.23,6.907c.045.073.085.149.178.314-1.318,0-2.557,0-3.8-.009a.411.411,0,0,1-.3-.193q-1.322-2.569-2.619-5.152a4.657,4.657,0,0,1-.213-.624c-.554,1.111-1.094,2.2-1.643,3.288-.39.77-.781,1.539-1.2,2.293-.093.167-.3.376-.462.38-1.244.031-2.49.017-3.832.017.731-1.115,1.418-2.148,2.09-3.191.857-1.328,1.69-2.67,2.559-3.989a.728.728,0,0,0,0-.9c-1.322-2.205-2.626-4.421-3.936-6.634-.082-.139-.161-.28-.271-.47a1.9,1.9,0,0,1,.336-.068c1.1,0,2.207.019,3.309,0a.672.672,0,0,1,.716.457c.763,1.747,1.542,3.487,2.318,5.228.013.028.056.043.124.093a2.126,2.126,0,0,0,.2-.288c.838-1.712,1.667-3.429,2.517-5.135a.648.648,0,0,1,.444-.33c1.134-.028,2.27-.015,3.557-.015" transform="translate(-34.99 -61.581)" fill="#fff"/>
  </g>
</svg>
