<svg xmlns="http://www.w3.org/2000/svg" xmlns:xlink="http://www.w3.org/1999/xlink" width="39" height="30" viewBox="0 0 39 30">
  <defs>
    <clipPath id="clip-path">
      <rect id="Rettangolo_44" data-name="Rettangolo 44" width="39" height="30" transform="translate(-0.5 0.03)" fill="#fff"/>
    </clipPath>
  </defs>
  <g id="Raggruppa_113" data-name="Raggruppa 113" transform="translate(-378.5 -270.03)">
    <g id="Raggruppa_62" data-name="Raggruppa 62" transform="translate(379 270)" clip-path="url(#clip-path)">
      <path id="Tracciato_98" data-name="Tracciato 98" d="M35.958,21.638H34.589V17.366a3.946,3.946,0,0,0-3.942-3.942H20.137v-4.9h1.29a2.9,2.9,0,0,0,2.9-2.9V2.9a2.9,2.9,0,0,0-2.9-2.9H17.268a2.9,2.9,0,0,0-2.9,2.9V5.633a2.9,2.9,0,0,0,2.9,2.9h1.29v4.9H8.048a3.946,3.946,0,0,0-3.942,3.942v4.271H2.9a2.9,2.9,0,0,0-2.9,2.9v2.738a2.9,2.9,0,0,0,2.9,2.9H7.055a2.9,2.9,0,0,0,2.9-2.9V24.533a2.9,2.9,0,0,0-2.9-2.9H5.686V17.366A2.365,2.365,0,0,1,8.048,15h10.51v6.633h-1.29a2.9,2.9,0,0,0-2.9,2.9v2.738a2.9,2.9,0,0,0,2.9,2.9h4.159a2.9,2.9,0,0,0,2.9-2.9V24.533a2.9,2.9,0,0,0-2.9-2.9h-1.29V15h10.51a2.365,2.365,0,0,1,2.362,2.362v4.271H31.8a2.9,2.9,0,0,0-2.9,2.9v2.738a2.9,2.9,0,0,0,2.9,2.9h4.159a2.9,2.9,0,0,0,2.9-2.9V24.533a2.9,2.9,0,0,0-2.9-2.9M17.268,6.949a1.317,1.317,0,0,1-1.316-1.316V2.9a1.317,1.317,0,0,1,1.316-1.316h4.159A1.317,1.317,0,0,1,22.743,2.9V5.633a1.317,1.317,0,0,1-1.316,1.316ZM7.055,23.217a1.317,1.317,0,0,1,1.316,1.316v2.738a1.317,1.317,0,0,1-1.316,1.316H2.9a1.317,1.317,0,0,1-1.316-1.316V24.533A1.317,1.317,0,0,1,2.9,23.217Zm14.372,0a1.317,1.317,0,0,1,1.316,1.316v2.738a1.317,1.317,0,0,1-1.316,1.316H17.268a1.317,1.317,0,0,1-1.316-1.316V24.533a1.317,1.317,0,0,1,1.316-1.316Zm15.846,4.054a1.317,1.317,0,0,1-1.316,1.316H31.8a1.317,1.317,0,0,1-1.316-1.316V24.533A1.317,1.317,0,0,1,31.8,23.217h4.159a1.317,1.317,0,0,1,1.316,1.316Z" transform="translate(-0.036 -0.194)" fill="#fff"/>
    </g>
  </g>
</svg>
