<svg xmlns="http://www.w3.org/2000/svg" width="82" height="31" viewBox="0 0 82 31">
  <g id="Raggruppa_154" data-name="Raggruppa 154" transform="translate(-600 -1047)">
    <g id="Raggruppa_134" data-name="Raggruppa 134" transform="translate(-323 715)">
      <g id="Rettangolo_174" data-name="Rettangolo 174" transform="translate(923 340)" fill="none" stroke="#fff" stroke-width="1">
        <rect width="5" height="5" stroke="none"/>
        <rect x="0.5" y="0.5" width="4" height="4" fill="none"/>
      </g>
      <g id="Rettangolo_177" data-name="Rettangolo 177" transform="translate(931 340)" fill="none" stroke="#fff" stroke-width="1">
        <rect width="5" height="5" stroke="none"/>
        <rect x="0.5" y="0.5" width="4" height="4" fill="none"/>
      </g>
      <g id="Rettangolo_178" data-name="Rettangolo 178" transform="translate(931 332)" fill="none" stroke="#fff" stroke-width="1">
        <rect width="5" height="5" stroke="none"/>
        <rect x="0.5" y="0.5" width="4" height="4" fill="none"/>
      </g>
      <g id="Rettangolo_179" data-name="Rettangolo 179" transform="translate(923 332)" fill="none" stroke="#fff" stroke-width="1">
        <rect width="5" height="5" stroke="none"/>
        <rect x="0.5" y="0.5" width="4" height="4" fill="none"/>
      </g>
    </g>
    <g id="Raggruppa_139" data-name="Raggruppa 139" transform="translate(-323 732)">
      <g id="Rettangolo_174-2" data-name="Rettangolo 174" transform="translate(923 341)" fill="none" stroke="#fff" stroke-width="1">
        <rect width="5" height="5" stroke="none"/>
        <rect x="0.5" y="0.5" width="4" height="4" fill="none"/>
      </g>
      <g id="Rettangolo_177-2" data-name="Rettangolo 177" transform="translate(931 341)" fill="none" stroke="#fff" stroke-width="1">
        <rect width="5" height="5" stroke="none"/>
        <rect x="0.5" y="0.5" width="4" height="4" fill="none"/>
      </g>
      <g id="Rettangolo_178-2" data-name="Rettangolo 178" transform="translate(931 333)" fill="none" stroke="#fff" stroke-width="1">
        <rect width="5" height="5" stroke="none"/>
        <rect x="0.5" y="0.5" width="4" height="4" fill="none"/>
      </g>
      <g id="Rettangolo_179-2" data-name="Rettangolo 179" transform="translate(923 333)" fill="none" stroke="#fff" stroke-width="1">
        <rect width="5" height="5" stroke="none"/>
        <rect x="0.5" y="0.5" width="4" height="4" fill="none"/>
      </g>
    </g>
    <g id="Raggruppa_135" data-name="Raggruppa 135" transform="translate(-306 715)">
      <g id="Rettangolo_174-3" data-name="Rettangolo 174" transform="translate(923 340)" fill="none" stroke="#fff" stroke-width="1">
        <rect width="5" height="5" stroke="none"/>
        <rect x="0.5" y="0.5" width="4" height="4" fill="none"/>
      </g>
      <g id="Rettangolo_177-3" data-name="Rettangolo 177" transform="translate(931 340)" fill="none" stroke="#fff" stroke-width="1">
        <rect width="5" height="5" stroke="none"/>
        <rect x="0.5" y="0.5" width="4" height="4" fill="none"/>
      </g>
      <g id="Rettangolo_178-3" data-name="Rettangolo 178" transform="translate(931 332)" fill="none" stroke="#fff" stroke-width="1">
        <rect width="5" height="5" stroke="none"/>
        <rect x="0.5" y="0.5" width="4" height="4" fill="none"/>
      </g>
      <g id="Rettangolo_179-3" data-name="Rettangolo 179" transform="translate(923 332)" fill="none" stroke="#fff" stroke-width="1">
        <rect width="5" height="5" stroke="none"/>
        <rect x="0.5" y="0.5" width="4" height="4" fill="none"/>
      </g>
    </g>
    <g id="Raggruppa_140" data-name="Raggruppa 140" transform="translate(-306 732)">
      <g id="Rettangolo_174-4" data-name="Rettangolo 174" transform="translate(923 341)" fill="none" stroke="#fff" stroke-width="1">
        <rect width="5" height="5" stroke="none"/>
        <rect x="0.5" y="0.5" width="4" height="4" fill="none"/>
      </g>
      <g id="Rettangolo_177-4" data-name="Rettangolo 177" transform="translate(931 341)" fill="none" stroke="#fff" stroke-width="1">
        <rect width="5" height="5" stroke="none"/>
        <rect x="0.5" y="0.5" width="4" height="4" fill="none"/>
      </g>
      <g id="Rettangolo_178-4" data-name="Rettangolo 178" transform="translate(931 333)" fill="none" stroke="#fff" stroke-width="1">
        <rect width="5" height="5" stroke="none"/>
        <rect x="0.5" y="0.5" width="4" height="4" fill="none"/>
      </g>
      <g id="Rettangolo_179-4" data-name="Rettangolo 179" transform="translate(923 333)" fill="none" stroke="#fff" stroke-width="1">
        <rect width="5" height="5" stroke="none"/>
        <rect x="0.5" y="0.5" width="4" height="4" fill="none"/>
      </g>
    </g>
    <g id="Raggruppa_136" data-name="Raggruppa 136" transform="translate(-289 715)">
      <g id="Rettangolo_174-5" data-name="Rettangolo 174" transform="translate(923 340)" fill="none" stroke="#fff" stroke-width="1">
        <rect width="5" height="5" stroke="none"/>
        <rect x="0.5" y="0.5" width="4" height="4" fill="none"/>
      </g>
      <g id="Rettangolo_177-5" data-name="Rettangolo 177" transform="translate(931 340)" fill="none" stroke="#fff" stroke-width="1">
        <rect width="5" height="5" stroke="none"/>
        <rect x="0.5" y="0.5" width="4" height="4" fill="none"/>
      </g>
      <g id="Rettangolo_178-5" data-name="Rettangolo 178" transform="translate(931 332)" fill="none" stroke="#fff" stroke-width="1">
        <rect width="5" height="5" stroke="none"/>
        <rect x="0.5" y="0.5" width="4" height="4" fill="none"/>
      </g>
      <g id="Rettangolo_179-5" data-name="Rettangolo 179" transform="translate(923 332)" fill="none" stroke="#fff" stroke-width="1">
        <rect width="5" height="5" stroke="none"/>
        <rect x="0.5" y="0.5" width="4" height="4" fill="none"/>
      </g>
    </g>
    <g id="Raggruppa_141" data-name="Raggruppa 141" transform="translate(-289 732)">
      <g id="Rettangolo_174-6" data-name="Rettangolo 174" transform="translate(923 341)" fill="none" stroke="#fff" stroke-width="1">
        <rect width="5" height="5" stroke="none"/>
        <rect x="0.5" y="0.5" width="4" height="4" fill="none"/>
      </g>
      <g id="Rettangolo_177-6" data-name="Rettangolo 177" transform="translate(931 341)" fill="none" stroke="#fff" stroke-width="1">
        <rect width="5" height="5" stroke="none"/>
        <rect x="0.5" y="0.5" width="4" height="4" fill="none"/>
      </g>
      <g id="Rettangolo_178-6" data-name="Rettangolo 178" transform="translate(931 333)" fill="none" stroke="#fff" stroke-width="1">
        <rect width="5" height="5" stroke="none"/>
        <rect x="0.5" y="0.5" width="4" height="4" fill="none"/>
      </g>
      <g id="Rettangolo_179-6" data-name="Rettangolo 179" transform="translate(923 333)" fill="none" stroke="#fff" stroke-width="1">
        <rect width="5" height="5" stroke="none"/>
        <rect x="0.5" y="0.5" width="4" height="4" fill="none"/>
      </g>
    </g>
    <g id="Raggruppa_137" data-name="Raggruppa 137" transform="translate(-271 715)">
      <g id="Rettangolo_174-7" data-name="Rettangolo 174" transform="translate(923 340)" fill="none" stroke="#fff" stroke-width="1">
        <rect width="5" height="5" stroke="none"/>
        <rect x="0.5" y="0.5" width="4" height="4" fill="none"/>
      </g>
      <g id="Rettangolo_177-7" data-name="Rettangolo 177" transform="translate(931 340)" fill="none" stroke="#fff" stroke-width="1">
        <rect width="5" height="5" stroke="none"/>
        <rect x="0.5" y="0.5" width="4" height="4" fill="none"/>
      </g>
      <g id="Rettangolo_178-7" data-name="Rettangolo 178" transform="translate(931 332)" fill="none" stroke="#fff" stroke-width="1">
        <rect width="5" height="5" stroke="none"/>
        <rect x="0.5" y="0.5" width="4" height="4" fill="none"/>
      </g>
      <g id="Rettangolo_179-7" data-name="Rettangolo 179" transform="translate(923 332)" fill="none" stroke="#fff" stroke-width="1">
        <rect width="5" height="5" stroke="none"/>
        <rect x="0.5" y="0.5" width="4" height="4" fill="none"/>
      </g>
    </g>
    <g id="Raggruppa_142" data-name="Raggruppa 142" transform="translate(-271 732)">
      <g id="Rettangolo_174-8" data-name="Rettangolo 174" transform="translate(923 341)" fill="none" stroke="#fff" stroke-width="1">
        <rect width="5" height="5" stroke="none"/>
        <rect x="0.5" y="0.5" width="4" height="4" fill="none"/>
      </g>
      <g id="Rettangolo_177-8" data-name="Rettangolo 177" transform="translate(931 341)" fill="none" stroke="#fff" stroke-width="1">
        <rect width="5" height="5" stroke="none"/>
        <rect x="0.5" y="0.5" width="4" height="4" fill="none"/>
      </g>
      <g id="Rettangolo_178-8" data-name="Rettangolo 178" transform="translate(931 333)" fill="none" stroke="#fff" stroke-width="1">
        <rect width="5" height="5" stroke="none"/>
        <rect x="0.5" y="0.5" width="4" height="4" fill="none"/>
      </g>
      <g id="Rettangolo_179-8" data-name="Rettangolo 179" transform="translate(923 333)" fill="none" stroke="#fff" stroke-width="1">
        <rect width="5" height="5" stroke="none"/>
        <rect x="0.5" y="0.5" width="4" height="4" fill="none"/>
      </g>
    </g>
    <g id="Raggruppa_138" data-name="Raggruppa 138" transform="translate(-254 715)">
      <g id="Rettangolo_174-9" data-name="Rettangolo 174" transform="translate(923 340)" fill="none" stroke="#fff" stroke-width="1">
        <rect width="5" height="5" stroke="none"/>
        <rect x="0.5" y="0.5" width="4" height="4" fill="none"/>
      </g>
      <g id="Rettangolo_177-9" data-name="Rettangolo 177" transform="translate(931 340)" fill="none" stroke="#fff" stroke-width="1">
        <rect width="5" height="5" stroke="none"/>
        <rect x="0.5" y="0.5" width="4" height="4" fill="none"/>
      </g>
      <g id="Rettangolo_178-9" data-name="Rettangolo 178" transform="translate(931 332)" fill="none" stroke="#fff" stroke-width="1">
        <rect width="5" height="5" stroke="none"/>
        <rect x="0.5" y="0.5" width="4" height="4" fill="none"/>
      </g>
      <g id="Rettangolo_179-9" data-name="Rettangolo 179" transform="translate(923 332)" fill="none" stroke="#fff" stroke-width="1">
        <rect width="5" height="5" stroke="none"/>
        <rect x="0.5" y="0.5" width="4" height="4" fill="none"/>
      </g>
    </g>
    <g id="Raggruppa_143" data-name="Raggruppa 143" transform="translate(-254 732)">
      <g id="Rettangolo_174-10" data-name="Rettangolo 174" transform="translate(923 341)" fill="none" stroke="#fff" stroke-width="1">
        <rect width="5" height="5" stroke="none"/>
        <rect x="0.5" y="0.5" width="4" height="4" fill="none"/>
      </g>
      <g id="Rettangolo_177-10" data-name="Rettangolo 177" transform="translate(931 341)" fill="none" stroke="#fff" stroke-width="1">
        <rect width="5" height="5" stroke="none"/>
        <rect x="0.5" y="0.5" width="4" height="4" fill="none"/>
      </g>
      <g id="Rettangolo_178-10" data-name="Rettangolo 178" transform="translate(931 333)" fill="none" stroke="#fff" stroke-width="1">
        <rect width="5" height="5" stroke="none"/>
        <rect x="0.5" y="0.5" width="4" height="4" fill="none"/>
      </g>
      <g id="Rettangolo_179-10" data-name="Rettangolo 179" transform="translate(923 333)" fill="none" stroke="#fff" stroke-width="1">
        <rect width="5" height="5" stroke="none"/>
        <rect x="0.5" y="0.5" width="4" height="4" fill="none"/>
      </g>
    </g>
  </g>
</svg>
