<svg xmlns="http://www.w3.org/2000/svg" width="17.613" height="25.951" viewBox="0 0 17.613 25.951">
  <path id="Icon_metro-pin" data-name="Icon metro-pin" d="M22.466,21.074l-8.661-5a2.222,2.222,0,1,0-2.223,3.848l8.66,5a2.222,2.222,0,0,0,2.224-3.848Zm-7.143-5.407,6.737,3.889L24.35,13.18,19.7,10.495l-4.376,5.172Zm-4.966,16.38L16.8,24.219l-2.887-1.667-3.557,9.495ZM27.134,9.654,21.361,6.32a1.667,1.667,0,0,0-1.667,2.887l5.774,3.334a1.667,1.667,0,1,0,1.666-2.887Z" transform="translate(-10.356 -6.096)" fill="#fff"/>
</svg>
