<svg xmlns="http://www.w3.org/2000/svg" xmlns:xlink="http://www.w3.org/1999/xlink" width="46.885" height="17.539" viewBox="0 0 46.885 17.539">
  <defs>
    <clipPath id="clip-path">
      <rect id="Rettangolo_142" data-name="Rettangolo 142" width="46.885" height="17.539" fill="#fff"/>
    </clipPath>
  </defs>
  <g id="Raggruppa_114" data-name="Raggruppa 114" clip-path="url(#clip-path)">
    <path id="Tracciato_123" data-name="Tracciato 123" d="M191.19,6.381A3.191,3.191,0,1,0,188,3.19a3.194,3.194,0,0,0,3.19,3.191m0-5.346a2.156,2.156,0,1,1-2.156,2.156,2.158,2.158,0,0,1,2.156-2.156" transform="translate(-149.509 0)" fill="#fff"/>
    <path id="Tracciato_124" data-name="Tracciato 124" d="M147.19,6.381A3.191,3.191,0,1,0,144,3.19a3.194,3.194,0,0,0,3.19,3.191m0-5.346a2.156,2.156,0,1,1-2.156,2.156,2.158,2.158,0,0,1,2.156-2.156" transform="translate(-114.517 0)" fill="#fff"/>
    <path id="Tracciato_125" data-name="Tracciato 125" d="M56.19,6.381A3.191,3.191,0,1,0,53,3.19a3.194,3.194,0,0,0,3.19,3.191m0-5.346A2.156,2.156,0,1,1,54.035,3.19,2.158,2.158,0,0,1,56.19,1.035" transform="translate(-42.149 0)" fill="#fff"/>
    <path id="Tracciato_126" data-name="Tracciato 126" d="M102.19,6.381A3.191,3.191,0,1,0,99,3.19a3.194,3.194,0,0,0,3.19,3.191m0-5.346a2.156,2.156,0,1,1-2.156,2.156,2.158,2.158,0,0,1,2.156-2.156" transform="translate(-78.731 0)" fill="#fff"/>
    <path id="Tracciato_127" data-name="Tracciato 127" d="M13.19,6.381A3.191,3.191,0,1,0,10,3.19a3.194,3.194,0,0,0,3.19,3.191m0-5.346A2.156,2.156,0,1,1,11.035,3.19,2.158,2.158,0,0,1,13.19,1.035" transform="translate(-7.953 0)" fill="#fff"/>
    <path id="Tracciato_128" data-name="Tracciato 128" d="M43.286,35.667H39.63a3.587,3.587,0,0,0-2.576,1.087,3.585,3.585,0,0,0-2.572-1.087H30.826A3.592,3.592,0,0,0,28.03,37a3.593,3.593,0,0,0-2.8-1.337H21.579a3.59,3.59,0,0,0-2.759,1.294,3.574,3.574,0,0,0-2.764-1.294H12.4a3.583,3.583,0,0,0-2.573,1.088,3.609,3.609,0,0,0-2.575-1.088H3.6a3.6,3.6,0,0,0-3.6,3.6V45.9H46.884V39.266a3.6,3.6,0,0,0-3.6-3.6M1.227,44.676V39.263A2.371,2.371,0,0,1,3.6,36.9H5.271L4.5,39.045l1.024,3.071.819-3.071L5.732,36.9h1.52a2.378,2.378,0,0,1,1.864.908,3.572,3.572,0,0,0-.313,1.46v5.412Zm9.009,0h-.2V39.263A2.371,2.371,0,0,1,12.4,36.9h1.675l-.768,2.15,1.024,3.071.819-3.071-.614-2.15h1.52a2.358,2.358,0,0,1,2.018,1.127l.173-.107a3.568,3.568,0,0,0-.265,1.348v5.412Zm17.369,0H19.21V39.263A2.371,2.371,0,0,1,21.579,36.9h1.676l-.768,2.15,1.024,3.071.819-3.071-.614-2.15h1.52a2.373,2.373,0,0,1,2.37,2.37Zm9.043,0H28.833v-5.41a3.574,3.574,0,0,0-.207-1.19l.115.062A2.368,2.368,0,0,1,30.826,36.9H32.5l-.768,2.15,1.024,3.071.819-3.071-.614-2.15h1.52a2.373,2.373,0,0,1,2.37,2.37v5.41Zm9.009,0H38.081v-5.41a3.573,3.573,0,0,0-.312-1.459A2.36,2.36,0,0,1,39.63,36.9h1.676l-.768,2.15,1.024,3.071.819-3.071-.614-2.15h1.52a2.373,2.373,0,0,1,2.37,2.37Z" transform="translate(0.001 -28.365)" fill="#fff"/>
  </g>
</svg>
