<svg id="Raggruppa_112" data-name="Raggruppa 112" xmlns="http://www.w3.org/2000/svg" width="34.802" height="32.028" viewBox="0 0 34.802 32.028">
  <path id="Tracciato_105" data-name="Tracciato 105" d="M14.958,24.21h4.676v6.3H14.958ZM1.513,13.511l7.208-1.8v18.8H6.179V27.489H4.161v3.026H1.513Zm24.463-1.825,7.314,1.825v17H30.641V27.489H28.624v3.026H25.976ZM10.235,7.818H24.357v22.7h-3.21V22.7h-7.7v7.818h-3.1V9.75l-.1.026Zm1.891-6.3h10.34V6.3H12.126ZM10.613,0V6.3H8.722v3.849L0,12.329v19.7H34.8v-19.7L25.871,10.1V6.3H23.979V0Z" fill="#fff"/>
  <rect id="Rettangolo_46" data-name="Rettangolo 46" width="2.018" height="2.018" transform="translate(12.231 9.962)" fill="#fff"/>
  <rect id="Rettangolo_47" data-name="Rettangolo 47" width="2.018" height="2.018" transform="translate(12.231 13.997)" fill="#fff"/>
  <rect id="Rettangolo_48" data-name="Rettangolo 48" width="2.018" height="2.018" transform="translate(12.231 18.032)" fill="#fff"/>
  <rect id="Rettangolo_49" data-name="Rettangolo 49" width="2.018" height="2.018" transform="translate(16.287 9.962)" fill="#fff"/>
  <rect id="Rettangolo_50" data-name="Rettangolo 50" width="2.018" height="2.018" transform="translate(14.501 2.9)" fill="#fff"/>
  <rect id="Rettangolo_51" data-name="Rettangolo 51" width="2.018" height="2.018" transform="translate(18.536 2.9)" fill="#fff"/>
  <rect id="Rettangolo_52" data-name="Rettangolo 52" width="2.018" height="2.018" transform="translate(16.287 13.997)" fill="#fff"/>
  <rect id="Rettangolo_53" data-name="Rettangolo 53" width="2.018" height="2.018" transform="translate(16.287 18.032)" fill="#fff"/>
  <rect id="Rettangolo_54" data-name="Rettangolo 54" width="2.018" height="2.018" transform="translate(20.554 9.962)" fill="#fff"/>
  <rect id="Rettangolo_55" data-name="Rettangolo 55" width="2.018" height="2.018" transform="translate(20.554 13.997)" fill="#fff"/>
  <rect id="Rettangolo_56" data-name="Rettangolo 56" width="2.018" height="2.018" transform="translate(20.554 18.032)" fill="#fff"/>
  <rect id="Rettangolo_57" data-name="Rettangolo 57" width="2.018" height="2.018" transform="translate(28.624 15.005)" fill="#fff"/>
  <rect id="Rettangolo_58" data-name="Rettangolo 58" width="2.018" height="2.018" transform="translate(28.624 19.04)" fill="#fff"/>
  <rect id="Rettangolo_59" data-name="Rettangolo 59" width="2.018" height="2.018" transform="translate(28.624 23.076)" fill="#fff"/>
  <rect id="Rettangolo_60" data-name="Rettangolo 60" width="2.018" height="2.018" transform="translate(4.161 15.005)" fill="#fff"/>
  <rect id="Rettangolo_61" data-name="Rettangolo 61" width="2.018" height="2.018" transform="translate(4.161 19.04)" fill="#fff"/>
  <rect id="Rettangolo_62" data-name="Rettangolo 62" width="2.018" height="2.018" transform="translate(4.161 23.076)" fill="#fff"/>
</svg>
