<svg xmlns="http://www.w3.org/2000/svg" width="34" height="29.844" viewBox="0 0 34 29.844">
  <g id="Raggruppa_157" data-name="Raggruppa 157" transform="translate(-809 -1215.146)">
    <path id="Icon_awesome-plus" data-name="Icon awesome-plus" d="M22.615,11.818H14.787V3.99a1.74,1.74,0,0,0-1.74-1.74h-1.74a1.74,1.74,0,0,0-1.74,1.74v7.828H1.74A1.74,1.74,0,0,0,0,13.558V15.3a1.74,1.74,0,0,0,1.74,1.74H9.568v7.828a1.74,1.74,0,0,0,1.74,1.74h1.74a1.74,1.74,0,0,0,1.74-1.74V17.037h7.828a1.74,1.74,0,0,0,1.74-1.74v-1.74A1.74,1.74,0,0,0,22.615,11.818Z" transform="translate(809 1212.896)" fill="#fff"/>
    <path id="Icon_awesome-list-ul" data-name="Icon awesome-list-ul" d="M1.267,3.375A1.267,1.267,0,1,0,2.534,4.642,1.267,1.267,0,0,0,1.267,3.375Zm0,4.223A1.267,1.267,0,1,0,2.534,8.865,1.267,1.267,0,0,0,1.267,7.6Zm0,4.223a1.267,1.267,0,1,0,1.267,1.267A1.267,1.267,0,0,0,1.267,11.821Zm11.824.422H4.645a.422.422,0,0,0-.422.422v.845a.422.422,0,0,0,.422.422h8.446a.422.422,0,0,0,.422-.422v-.845A.422.422,0,0,0,13.091,12.243Zm0-8.446H4.645a.422.422,0,0,0-.422.422v.845a.422.422,0,0,0,.422.422h8.446a.422.422,0,0,0,.422-.422V4.22A.422.422,0,0,0,13.091,3.8Zm0,4.223H4.645a.422.422,0,0,0-.422.422v.845a.422.422,0,0,0,.422.422h8.446a.422.422,0,0,0,.422-.422V8.442A.422.422,0,0,0,13.091,8.02Z" transform="translate(829.487 1230.635)" fill="#fff"/>
  </g>
</svg>
