<svg xmlns="http://www.w3.org/2000/svg" width="82" height="31" viewBox="0 0 82 31">
  <g id="Raggruppa_155" data-name="Raggruppa 155" transform="translate(-420 -1047)">
    <g id="Rettangolo_33" data-name="Rettangolo 33" transform="translate(420 1047)" fill="none" stroke="#fff" stroke-width="1">
      <rect width="13" height="14" stroke="none"/>
      <rect x="0.5" y="0.5" width="12" height="13" fill="none"/>
    </g>
    <g id="Rettangolo_33-2" data-name="Rettangolo 33" transform="translate(437 1047)" fill="none" stroke="#fff" stroke-width="1">
      <rect width="14" height="14" stroke="none"/>
      <rect x="0.5" y="0.5" width="13" height="13" fill="none"/>
    </g>
    <g id="Rettangolo_33-3" data-name="Rettangolo 33" transform="translate(454 1047)" fill="none" stroke="#fff" stroke-width="1">
      <rect width="14" height="14" stroke="none"/>
      <rect x="0.5" y="0.5" width="13" height="13" fill="none"/>
    </g>
    <g id="Rettangolo_33-4" data-name="Rettangolo 33" transform="translate(471 1047)" fill="none" stroke="#fff" stroke-width="1">
      <rect width="14" height="14" stroke="none"/>
      <rect x="0.5" y="0.5" width="13" height="13" fill="none"/>
    </g>
    <g id="Rettangolo_33-5" data-name="Rettangolo 33" transform="translate(489 1047)" fill="none" stroke="#fff" stroke-width="1">
      <rect width="13" height="14" stroke="none"/>
      <rect x="0.5" y="0.5" width="12" height="13" fill="none"/>
    </g>
    <g id="Rettangolo_33-6" data-name="Rettangolo 33" transform="translate(420 1064)" fill="none" stroke="#fff" stroke-width="1">
      <rect width="13" height="14" stroke="none"/>
      <rect x="0.5" y="0.5" width="12" height="13" fill="none"/>
    </g>
    <g id="Rettangolo_33-7" data-name="Rettangolo 33" transform="translate(437 1064)" fill="none" stroke="#fff" stroke-width="1">
      <rect width="14" height="14" stroke="none"/>
      <rect x="0.5" y="0.5" width="13" height="13" fill="none"/>
    </g>
    <g id="Rettangolo_33-8" data-name="Rettangolo 33" transform="translate(454 1064)" fill="none" stroke="#fff" stroke-width="1">
      <rect width="14" height="14" stroke="none"/>
      <rect x="0.5" y="0.5" width="13" height="13" fill="none"/>
    </g>
    <g id="Rettangolo_33-9" data-name="Rettangolo 33" transform="translate(471 1064)" fill="none" stroke="#fff" stroke-width="1">
      <rect width="14" height="14" stroke="none"/>
      <rect x="0.5" y="0.5" width="13" height="13" fill="none"/>
    </g>
    <g id="Rettangolo_33-10" data-name="Rettangolo 33" transform="translate(489 1064)" fill="none" stroke="#fff" stroke-width="1">
      <rect width="13" height="14" stroke="none"/>
      <rect x="0.5" y="0.5" width="12" height="13" fill="none"/>
    </g>
  </g>
</svg>
