<svg xmlns="http://www.w3.org/2000/svg" width="31.318" height="28.469" viewBox="0 0 31.318 28.469">
  <g id="Raggruppa_152" data-name="Raggruppa 152" transform="translate(-441.341 -886.621)">
    <path id="Unione_2" data-name="Unione 2" d="M31.318,22.885H1.77a.834.834,0,0,1-.885-.771V1.682A.834.834,0,0,1,1.77.911H7.155a.834.834,0,0,1,.885.771.834.834,0,0,1-.885.771h-4.5V21.344H30.433V2.452H26.046a.834.834,0,0,1-.885-.771.834.834,0,0,1,.885-.771h5.272a.834.834,0,0,1,.885.771V22.115A.834.834,0,0,1,31.318,22.885Z" transform="translate(440.456 892.204)" fill="#fff"/>
    <path id="Unione_1" data-name="Unione 1" d="M.229,16.348A.969.969,0,0,1,.262,15.06a.79.79,0,0,1,1.183.036l2.39,2.75V.911a.885.885,0,1,1,1.77,0V17.818L7.74,15.127a.79.79,0,0,1,1.18-.094.968.968,0,0,1,.087,1.285l-4.2,5.3Z" transform="translate(452.395 886.621)" fill="#fff"/>
  </g>
</svg>
