<svg xmlns="http://www.w3.org/2000/svg" width="28.316" height="23.007" viewBox="0 0 28.316 23.007">
  <path id="Icon_awesome-list-ul" data-name="Icon awesome-list-ul" d="M2.655,3.375A2.655,2.655,0,1,0,5.309,6.03,2.655,2.655,0,0,0,2.655,3.375Zm0,8.849a2.655,2.655,0,1,0,2.655,2.655A2.655,2.655,0,0,0,2.655,12.224Zm0,8.849a2.655,2.655,0,1,0,2.655,2.655A2.655,2.655,0,0,0,2.655,21.073Zm24.777.885H9.734a.885.885,0,0,0-.885.885v1.77a.885.885,0,0,0,.885.885h17.7a.885.885,0,0,0,.885-.885v-1.77A.885.885,0,0,0,27.432,21.958Zm0-17.7H9.734a.885.885,0,0,0-.885.885v1.77a.885.885,0,0,0,.885.885h17.7a.885.885,0,0,0,.885-.885V5.145A.885.885,0,0,0,27.432,4.26Zm0,8.849H9.734a.885.885,0,0,0-.885.885v1.77a.885.885,0,0,0,.885.885h17.7a.885.885,0,0,0,.885-.885v-1.77A.885.885,0,0,0,27.432,13.109Z" transform="translate(0 -3.375)" fill="#fff"/>
</svg>
