<svg xmlns="http://www.w3.org/2000/svg" width="24.355" height="24.355" viewBox="0 0 24.355 24.355">
  <path id="Icon_awesome-plus" data-name="Icon awesome-plus" d="M22.615,11.818H14.787V3.99a1.74,1.74,0,0,0-1.74-1.74h-1.74a1.74,1.74,0,0,0-1.74,1.74v7.828H1.74A1.74,1.74,0,0,0,0,13.558V15.3a1.74,1.74,0,0,0,1.74,1.74H9.568v7.828a1.74,1.74,0,0,0,1.74,1.74h1.74a1.74,1.74,0,0,0,1.74-1.74V17.037h7.828a1.74,1.74,0,0,0,1.74-1.74v-1.74A1.74,1.74,0,0,0,22.615,11.818Z" transform="translate(0 -2.25)" fill="#fff"/>
</svg>
