<svg xmlns="http://www.w3.org/2000/svg" width="30.39" height="30.889" viewBox="0 0 30.39 30.889">
  <g id="Raggruppa_156" data-name="Raggruppa 156" transform="translate(-629 -1215.146)">
    <path id="Icon_awesome-plus" data-name="Icon awesome-plus" d="M22.615,11.818H14.787V3.99a1.74,1.74,0,0,0-1.74-1.74h-1.74a1.74,1.74,0,0,0-1.74,1.74v7.828H1.74A1.74,1.74,0,0,0,0,13.558V15.3a1.74,1.74,0,0,0,1.74,1.74H9.568v7.828a1.74,1.74,0,0,0,1.74,1.74h1.74a1.74,1.74,0,0,0,1.74-1.74V17.037h7.828a1.74,1.74,0,0,0,1.74-1.74v-1.74A1.74,1.74,0,0,0,22.615,11.818Z" transform="translate(629 1212.896)" fill="#fff"/>
    <path id="Icon_awesome-plus-2" data-name="Icon awesome-plus" d="M11.207,6.992H7.328V3.112a.862.862,0,0,0-.862-.862H5.6a.862.862,0,0,0-.862.862V6.992H.862A.862.862,0,0,0,0,7.854v.862a.862.862,0,0,0,.862.862H4.742v3.879a.862.862,0,0,0,.862.862h.862a.862.862,0,0,0,.862-.862V9.578h3.879a.862.862,0,0,0,.862-.862V7.854A.862.862,0,0,0,11.207,6.992Z" transform="translate(647.32 1231.715)" fill="#fff"/>
  </g>
</svg>
