<svg id="Raggruppa_117" data-name="Raggruppa 117" xmlns="http://www.w3.org/2000/svg" xmlns:xlink="http://www.w3.org/1999/xlink" width="261.974" height="49.375" viewBox="0 0 261.974 49.375">
  <defs>
    <clipPath id="clip-path">
      <rect id="Rettangolo_147" data-name="Rettangolo 147" width="261.974" height="49.375" fill="#fff"/>
    </clipPath>
  </defs>
  <g id="Raggruppa_115" data-name="Raggruppa 115" transform="translate(0 0)" clip-path="url(#clip-path)">
    <path id="Tracciato_129" data-name="Tracciato 129" d="M123.51,90.683a3.157,3.157,0,0,0,.38,1.913,2.238,2.238,0,0,0,1.746.819,2.3,2.3,0,0,0,1.7-.762,2.942,2.942,0,0,0,.426-1.97V85.569h.965v5.376a3.01,3.01,0,0,1-.759,2.381,3.2,3.2,0,0,1-2.331.978,3.26,3.26,0,0,1-2.241-.877,3.014,3.014,0,0,1-.849-2.483V85.569h.965Z" transform="translate(-64.917 -45.329)" fill="#fff"/>
    <path id="Tracciato_130" data-name="Tracciato 130" d="M140.247,92.927h.023a1.818,1.818,0,0,1,1.541-.8c1.492,0,1.836,1.072,1.836,2.326v3.178h-.918v-3.02c0-.866-.069-1.641-1.137-1.641-1.263,0-1.344,1.163-1.344,2.12v2.54h-.918V92.278h.918Z" transform="translate(-73.808 -48.804)" fill="#fff"/>
    <path id="Tracciato_131" data-name="Tracciato 131" d="M153.486,87.427a.655.655,0,1,1-.654-.648.653.653,0,0,1,.654.648m-.2,7.37h-.919V89.444h.919Z" transform="translate(-80.613 -45.97)" fill="#fff"/>
    <path id="Tracciato_132" data-name="Tracciato 132" d="M157.6,94.968a2.837,2.837,0,1,1,2.838,2.814,2.822,2.822,0,0,1-2.838-2.814m.919-.01a1.919,1.919,0,1,0,1.919-1.982,1.9,1.9,0,0,0-1.919,1.982" transform="translate(-83.486 -48.806)" fill="#fff"/>
    <path id="Tracciato_133" data-name="Tracciato 133" d="M173.272,92.927h.023a1.817,1.817,0,0,1,1.539-.8c1.494,0,1.839,1.072,1.839,2.326v3.178h-.919v-3.02c0-.866-.069-1.641-1.137-1.641-1.263,0-1.344,1.163-1.344,2.12v2.54h-.919V92.278h.919Z" transform="translate(-91.302 -48.804)" fill="#fff"/>
    <path id="Tracciato_134" data-name="Tracciato 134" d="M185.169,95.15a1.741,1.741,0,0,0,1.768,1.787,1.85,1.85,0,0,0,1.644-1.1l.782.443a2.731,2.731,0,0,1-2.493,1.5,2.6,2.6,0,0,1-2.641-2.755,2.613,2.613,0,1,1,5.179.124Zm3.274-.775a1.642,1.642,0,0,0-1.584-1.4,1.7,1.7,0,0,0-1.644,1.4Z" transform="translate(-97.592 -48.806)" fill="#fff"/>
    <rect id="Rettangolo_143" data-name="Rettangolo 143" width="0.954" height="8.588" transform="translate(95.553 40.238)" fill="#fff"/>
    <path id="Tracciato_135" data-name="Tracciato 135" d="M209.822,92.927h.023a1.789,1.789,0,0,1,1.522-.8c1.477,0,1.817,1.072,1.817,2.326v3.178h-.908v-3.02c0-.866-.069-1.641-1.125-1.641-1.249,0-1.328,1.163-1.328,2.12v2.54h-.909V92.278h.909Z" transform="translate(-110.669 -48.804)" fill="#fff"/>
    <path id="Tracciato_136" data-name="Tracciato 136" d="M225.117,92.5h-.023a2.271,2.271,0,0,1-1.839.889,2.838,2.838,0,0,1,.012-5.649,2.305,2.305,0,0,1,1.827.911h.023V83.848h.909v9.4h-.909Zm-3.485-1.993a1.847,1.847,0,0,0,1.748,2.04,1.826,1.826,0,0,0,1.784-2.029,1.788,1.788,0,0,0-1.795-1.936,1.812,1.812,0,0,0-1.737,1.925" transform="translate(-116.913 -44.417)" fill="#fff"/>
    <path id="Tracciato_137" data-name="Tracciato 137" d="M236.363,95.43c0,.9.1,1.675,1.2,1.675s1.2-.775,1.2-1.675V92.445h.909v3.088c0,1.422-.535,2.414-2.111,2.414s-2.113-.992-2.113-2.414V92.445h.909Z" transform="translate(-124.728 -48.971)" fill="#fff"/>
    <path id="Tracciato_138" data-name="Tracciato 138" d="M249.623,93.521a.851.851,0,0,0-.727-.547.648.648,0,0,0-.659.593c0,.49.614.671,1.237.933a1.629,1.629,0,0,1,1.239,1.537,1.749,1.749,0,0,1-1.8,1.744,1.922,1.922,0,0,1-1.886-1.356l.806-.341c.228.5.489.854,1.091.854a.814.814,0,0,0,.864-.82c0-1.2-2.408-.787-2.408-2.472a1.523,1.523,0,0,1,1.589-1.515,1.611,1.611,0,0,1,1.42.99Z" transform="translate(-130.857 -48.806)" fill="#fff"/>
    <path id="Tracciato_139" data-name="Tracciato 139" d="M257.072,88.353v1.924h-.557v.844h.557v4.51h.908V91.12h.954v-.844h-.954V88.353Z" transform="translate(-135.885 -46.804)" fill="#fff"/>
    <path id="Tracciato_140" data-name="Tracciato 140" d="M264.208,92.861h.023a1.372,1.372,0,0,1,1.182-.728,1.606,1.606,0,0,1,.818.25l-.433.831a.876.876,0,0,0-.544-.24c-1,0-1.045,1.289-1.045,1.983v2.676H263.3V92.28h.909Z" transform="translate(-139.479 -48.806)" fill="#fff"/>
    <path id="Tracciato_141" data-name="Tracciato 141" d="M272.734,87.427a.648.648,0,1,1-.647-.648.649.649,0,0,1,.647.648m-.193,7.37h-.908V89.444h.908Z" transform="translate(-143.79 -45.97)" fill="#fff"/>
    <path id="Tracciato_142" data-name="Tracciato 142" d="M282.175,97.632h-.909v-.74h-.023a2.235,2.235,0,0,1-1.839.889,2.838,2.838,0,0,1,.012-5.649,2.3,2.3,0,0,1,1.827.911h.023v-.764h.909ZM277.781,94.9a1.846,1.846,0,0,0,1.749,2.038,1.824,1.824,0,0,0,1.782-2.027,1.788,1.788,0,0,0-1.795-1.936,1.813,1.813,0,0,0-1.737,1.925" transform="translate(-146.657 -48.806)" fill="#fff"/>
    <rect id="Rettangolo_144" data-name="Rettangolo 144" width="0.909" height="9.398" transform="translate(137.176 39.429)" fill="#fff"/>
    <path id="Tracciato_143" data-name="Tracciato 143" d="M297.146,95.15a1.731,1.731,0,0,0,1.751,1.787,1.827,1.827,0,0,0,1.624-1.1l.773.443a2.7,2.7,0,0,1-2.465,1.5,2.588,2.588,0,0,1-2.612-2.755,2.587,2.587,0,1,1,5.121.124Zm3.239-.775a1.632,1.632,0,0,0-1.569-1.4,1.686,1.686,0,0,0-1.622,1.4Z" transform="translate(-156.916 -48.806)" fill="#fff"/>
    <path id="Tracciato_144" data-name="Tracciato 144" d="M319.049,92.5h-.024a2.257,2.257,0,0,1-1.833.889,2.839,2.839,0,0,1,.012-5.649,2.293,2.293,0,0,1,1.82.911h.024V83.848h.906v9.4h-.906Zm-3.475-1.993a1.846,1.846,0,0,0,1.742,2.04,1.823,1.823,0,0,0,1.777-2.029,1.784,1.784,0,0,0-1.787-1.936,1.811,1.811,0,0,0-1.732,1.925" transform="translate(-166.68 -44.417)" fill="#fff"/>
    <path id="Tracciato_145" data-name="Tracciato 145" d="M329.408,95.15a1.729,1.729,0,0,0,1.745,1.787,1.822,1.822,0,0,0,1.618-1.1l.767.443a2.679,2.679,0,0,1-2.453,1.5,2.584,2.584,0,0,1-2.6-2.755,2.58,2.58,0,1,1,5.1.124Zm3.226-.775a1.628,1.628,0,0,0-1.563-1.4,1.687,1.687,0,0,0-1.617,1.4Z" transform="translate(-174.009 -48.806)" fill="#fff"/>
    <rect id="Rettangolo_145" data-name="Rettangolo 145" width="0.906" height="9.398" transform="translate(160.797 39.429)" fill="#fff"/>
    <rect id="Rettangolo_146" data-name="Rettangolo 146" width="0.906" height="9.398" transform="translate(163.366 39.429)" fill="#fff"/>
    <path id="Tracciato_146" data-name="Tracciato 146" d="M357.246,97.632h-.9v-.74h-.022a2.226,2.226,0,0,1-1.834.889,2.839,2.839,0,0,1,.012-5.649,2.3,2.3,0,0,1,1.822.911h.022v-.764h.9ZM352.869,94.9a1.844,1.844,0,0,0,1.742,2.038,1.821,1.821,0,0,0,1.776-2.027,1.785,1.785,0,0,0-1.787-1.936,1.81,1.81,0,0,0-1.731,1.925" transform="translate(-186.435 -48.806)" fill="#fff"/>
    <path id="Tracciato_147" data-name="Tracciato 147" d="M373.026,94.157h-.942V85.568h1.391a3.523,3.523,0,0,1,2.1.456,2.377,2.377,0,0,1,.954,1.96,2.432,2.432,0,0,1-.807,1.844,3.024,3.024,0,0,1-2.01.569h-.685Zm0-4.648h.63c1.042,0,1.929-.319,1.929-1.55,0-1.4-1.109-1.5-2.21-1.5h-.348Z" transform="translate(-197.106 -45.328)" fill="#fff"/>
    <path id="Tracciato_148" data-name="Tracciato 148" d="M384.894,92.861h.021a1.36,1.36,0,0,1,1.168-.728,1.56,1.56,0,0,1,.807.25l-.426.831a.864.864,0,0,0-.538-.24c-.987,0-1.032,1.289-1.032,1.983v2.676h-.9V92.28h.9Z" transform="translate(-203.416 -48.806)" fill="#fff"/>
    <path id="Tracciato_149" data-name="Tracciato 149" d="M391.086,94.968a2.773,2.773,0,1,1,2.773,2.814,2.79,2.79,0,0,1-2.773-2.814m.9-.01a1.878,1.878,0,1,0,1.875-1.982,1.885,1.885,0,0,0-1.875,1.982" transform="translate(-207.172 -48.806)" fill="#fff"/>
    <path id="Tracciato_150" data-name="Tracciato 150" d="M407.881,92.444l-1.572,3.6-1.572-3.6h-1.021l2.593,5.707,2.583-5.707Z" transform="translate(-213.863 -48.971)" fill="#fff"/>
    <path id="Tracciato_151" data-name="Tracciato 151" d="M417.793,87.427a.64.64,0,1,1-.64-.648.645.645,0,0,1,.64.648M417.6,94.8h-.9V89.444h.9Z" transform="translate(-220.642 -45.97)" fill="#fff"/>
    <path id="Tracciato_152" data-name="Tracciato 152" d="M423.714,92.927h.021a1.768,1.768,0,0,1,1.5-.8c1.462,0,1.8,1.072,1.8,2.326v3.178h-.9v-3.02c0-.866-.067-1.641-1.111-1.641-1.235,0-1.313,1.163-1.313,2.12v2.54h-.9V92.278h.9Z" transform="translate(-223.98 -48.804)" fill="#fff"/>
    <path id="Tracciato_153" data-name="Tracciato 153" d="M438.747,93.875h-.023a2.026,2.026,0,0,0-1.639-.9,1.9,1.9,0,0,0-1.865,1.982,1.866,1.866,0,0,0,1.82,1.981,2.045,2.045,0,0,0,1.716-.921h.023v1.218a2.85,2.85,0,0,1-1.672.547,2.752,2.752,0,0,1-2.807-2.824,2.8,2.8,0,0,1,4.446-2.289Z" transform="translate(-230.065 -48.806)" fill="#fff"/>
    <path id="Tracciato_154" data-name="Tracciato 154" d="M448.018,87.427a.639.639,0,1,1-.638-.648.645.645,0,0,1,.638.648m-.19,7.37h-.9V89.444h.9Z" transform="translate(-236.654 -45.97)" fill="#fff"/>
    <path id="Tracciato_155" data-name="Tracciato 155" d="M457.352,97.632h-.9v-.74h-.022a2.2,2.2,0,0,1-1.819.889,2.841,2.841,0,0,1,.01-5.649,2.272,2.272,0,0,1,1.808.911h.022v-.764h.9ZM453.008,94.9a1.839,1.839,0,0,0,1.729,2.038A1.816,1.816,0,0,0,456.5,94.91a1.779,1.779,0,0,0-1.774-1.936,1.8,1.8,0,0,0-1.716,1.925" transform="translate(-239.487 -48.806)" fill="#fff"/>
    <path id="Tracciato_156" data-name="Tracciato 156" d="M40.89,3.056c-2.056,1.367-7.388,7.29-7.388,7.29-1.068,1.115-1.594,1.018-1.594,1.018-.659.057-.83-.721-.83-.721q-.116-.459-.229-.89V9.726a50.938,50.938,0,0,0-2.1-6.777s.987-.061,1.52-.118.455.093.519.333c0,0,.136.423.3.423A.2.2,0,0,0,31.3,3.42c.109-.455.112-2.351-.782-2.469a9.811,9.811,0,0,0-1.97,0A2.516,2.516,0,0,0,27.508.176,6.971,6.971,0,0,0,25.374.017a8.376,8.376,0,0,0-1.306.1,2.345,2.345,0,0,0-1.577,1.356,42.4,42.4,0,0,0-3.2,8.809s-.226,1-.725.954c0,0-.409.219-1.475-.9,0,0-5.331-5.923-7.389-7.29C7.821,1.808,1.362.628.176,11.556-.969,22.094,3.708,34.147,7.082,49.375a11.4,11.4,0,0,0,4.719-7.4l.35.54c.29.417,1.182.521,1.817-.345l1.562-2.127a1.432,1.432,0,0,0,.007-1.755l-.334-.531a.2.2,0,0,1,.053-.273l2.372-1.709a.21.21,0,0,1,.279.032l.4.48A1.463,1.463,0,0,0,20,36.825l2.524-.814A1.444,1.444,0,0,0,23.568,34.6l.043-.621a.211.211,0,0,1,.206-.195h2.957a.211.211,0,0,1,.207.195l.041.621a1.446,1.446,0,0,0,1.047,1.415l2.526.814a1.46,1.46,0,0,0,1.684-.537l.4-.48a.21.21,0,0,1,.279-.032l2.374,1.709a.2.2,0,0,1,.052.273l-.334.531a1.435,1.435,0,0,0,.007,1.755l1.562,2.127c.635.866,1.528.762,1.817.345l.35-.54a11.4,11.4,0,0,0,4.719,7.4c3.375-15.228,8.054-27.28,6.908-37.819C49.228.628,42.769,1.808,40.89,3.056M16.717,11.919c.862.838,1.422.8,1.651.785a.841.841,0,0,0,.5-.174c-.208,1.1-.367,2.823-.367,2.831a1.351,1.351,0,0,1-.457.754,2.074,2.074,0,0,1-2.307.447c-1.712-.569-2.136-1.634-2.109-2.415a8.458,8.458,0,0,1,.24-1.344,10.657,10.657,0,0,1,1-2.795c.169.181,1.842,1.912,1.842,1.912M10.873,5.87A37.033,37.033,0,0,1,13.9,8.927a15.484,15.484,0,0,0-1.2,3.19c-.1.466-.343,1.714-1.239,2a2.193,2.193,0,0,1-1.655-.247,3.06,3.06,0,0,1-1.7-2.5,5.627,5.627,0,0,1,.293-1.411A9.428,9.428,0,0,1,10.873,5.87M5.511,3.82a3.708,3.708,0,0,1,3.54.438,5.269,5.269,0,0,1,.863.706,8.912,8.912,0,0,0-2.93,4.748c-.078.283-.317,1-1.294.6a3.627,3.627,0,0,0-3,.317A3.856,3.856,0,0,0,1.5,11.946c.185-4.4,2.248-7.422,4.011-8.126M7.94,46.861c-1.263-5.777-3.185-13.138-3.206-13.2a99.97,99.97,0,0,1-2.876-13A31.009,31.009,0,0,1,1.5,16.994c-.048-2.719.447-4.717,2.574-5.314a2.278,2.278,0,0,1,2.1.494s-.158.888-.2,1.428a18.334,18.334,0,0,0-.117,2.034C6.018,24.344,8,30.484,9.295,35.377a36.354,36.354,0,0,1,1.115,4.667A9.571,9.571,0,0,1,7.94,46.861m6.128-10a1.1,1.1,0,0,0-.21,1.354L14.5,39.22l-1.641,2.241c-2.181-6.145-5.463-16.918-5.5-24.939q0-.6.024-1.18a18.171,18.171,0,0,1,.151-1.994c.213,1.077,1.717,2.87,4.467,2.217-.012.25-.021.474-.021.769,0,.928.021,2.842.127,3.918a68.524,68.524,0,0,0,3.23,15.69Zm4.689-2.176a1.121,1.121,0,0,0-1.363-.221l-.776.561a61.827,61.827,0,0,1-3.23-18.749c.267,1.284,3.126,2.724,5.026,1.075A98.487,98.487,0,0,0,19.524,35.6c-.2-.237-.766-.92-.766-.92m1.21-9.146c-.147-1.982-.442-10.809.652-14.255a2.6,2.6,0,0,0,3.861,1V25.516c-.3-.831-3.1-1.654-4.513.023m4.569,7.029-1.312.019a1.108,1.108,0,0,0-.971.968s-.055.889-.074,1.194l-1.413.456a44.95,44.95,0,0,1-.593-6.8,1.973,1.973,0,0,1,2.135-2.248c.8.005,2.229.281,2.229,2.6ZM25.3,9.884a.165.165,0,0,0-.16-.124.162.162,0,0,0-.162.124,1.971,1.971,0,0,1-1.587,1.392,1.689,1.689,0,0,1-1.489-.326A2.213,2.213,0,0,1,21.223,9.2a5.524,5.524,0,0,1,.12-.849c.476-2.126,1.924-7.056,3.273-7.056h.016c1.332-.134,2.847-.076,2.98.224a1.079,1.079,0,0,1,.107.669c-.005.009-.017.024-.072.024-.136,0-1.343-.014-1.627.316a.279.279,0,0,0-.069.238c.033.2.243.268.487.342a1.917,1.917,0,0,1,1.3.961,21.761,21.761,0,0,1,1.477,4.282,4.9,4.9,0,0,1,.131.849,2.276,2.276,0,0,1-.68,1.8,2.316,2.316,0,0,1-1.77.324A2,2,0,0,1,25.3,9.884m4.486,25.307-1.378-.443s-.072-1.192-.072-1.194a1.111,1.111,0,0,0-.975-.968l-1.308-.019V28.752c0-2.316,1.434-2.592,2.227-2.6A1.973,1.973,0,0,1,30.417,28.4s0,1.515-.628,6.787m.832-9.653c-1.412-1.677-4.214-.854-4.51-.023V12.288a2.6,2.6,0,0,0,3.859-1c1.1,3.446.8,12.272.651,14.255M41.539,4.258a3.715,3.715,0,0,1,3.543-.438c1.76.7,3.825,3.724,4.008,8.126A3.866,3.866,0,0,0,47.9,10.633a3.63,3.63,0,0,0-3.005-.317c-.974.4-1.214-.321-1.294-.6a8.9,8.9,0,0,0-2.931-4.748,5.341,5.341,0,0,1,.864-.706M39.715,5.87a9.4,9.4,0,0,1,2.469,4.089,5.54,5.54,0,0,1,.293,1.411,3.056,3.056,0,0,1-1.7,2.5,2.193,2.193,0,0,1-1.655.247c-.9-.285-1.135-1.532-1.239-2a15.4,15.4,0,0,0-1.2-3.19,37.454,37.454,0,0,1,3.03-3.057M32.224,12.7c.229.01.787.054,1.651-.785,0,0,1.672-1.731,1.841-1.912A10.725,10.725,0,0,1,36.721,12.8a8.628,8.628,0,0,1,.238,1.344c.027.782-.4,1.846-2.107,2.415a2.079,2.079,0,0,1-2.309-.447,1.351,1.351,0,0,1-.457-.754c0-.009-.159-1.732-.367-2.831a.845.845,0,0,0,.5.174m.971,21.76a1.121,1.121,0,0,0-1.363.221l-.766.92A98.672,98.672,0,0,0,32.175,17.35c1.9,1.649,4.76.209,5.026-1.075a61.854,61.854,0,0,1-3.226,18.749Zm4.532,7L36.086,39.22l.647-1.006a1.1,1.1,0,0,0-.211-1.354l-1.266-.954a71.29,71.29,0,0,0,3.218-15.654c.109-1.076.129-2.99.129-3.918,0-.295-.008-.519-.019-.769,2.748.652,4.253-1.14,4.467-2.217a18.6,18.6,0,0,1,.15,1.994q.026.58.024,1.18c-.036,8.021-3.344,19.073-5.5,24.939m11.006-20.8a99.821,99.821,0,0,1-2.88,13c-.019.062-1.941,7.424-3.2,13.2a9.571,9.571,0,0,1-2.467-6.817A35.954,35.954,0,0,1,41.3,35.377c1.3-4.893,3.278-11.033,3.444-19.741a18,18,0,0,0-.117-2.034c-.041-.54-.2-1.428-.2-1.428a2.28,2.28,0,0,1,2.1-.494c2.126.6,2.621,2.595,2.573,5.314a30.756,30.756,0,0,1-.359,3.671m-23.438,17.2a10.473,10.473,0,0,1,7.51,3.051,10.7,10.7,0,0,1,3.042,7.612c0,.054,0,.109,0,.161H34.36c0-.052,0-.107,0-.161a8.884,8.884,0,0,0-9.068-9.1,8.884,8.884,0,0,0-9.068,9.1c0,.054,0,.109.005.161H14.746c0-.052,0-.107,0-.161a10.7,10.7,0,0,1,3.042-7.612,10.473,10.473,0,0,1,7.51-3.051m0,4.46A6.1,6.1,0,0,1,29.667,44.1a6.231,6.231,0,0,1,1.77,4.432c0,.053-.007.107-.008.162H29.781c0-.085.012-.166.012-.252a4.359,4.359,0,0,0-4.5-4.413,4.358,4.358,0,0,0-4.5,4.413c0,.086.007.167.012.252h-1.65c0-.055-.008-.109-.008-.162A6.225,6.225,0,0,1,20.925,44.1a6.093,6.093,0,0,1,4.37-1.774" transform="translate(0 0)" fill="#fff"/>
    <path id="Tracciato_157" data-name="Tracciato 157" d="M131.744,40.153a5.811,5.811,0,0,0-1.824-1.439,4.892,4.892,0,0,0-2.144-.466,4.492,4.492,0,0,0-1.844.4,4.668,4.668,0,0,0-1.561,1.12,5.058,5.058,0,0,0-1.025,1.663A5.78,5.78,0,0,0,123,43.462a5.976,5.976,0,0,0,.2,1.606,4.72,4.72,0,0,0,.611,1.349,5.045,5.045,0,0,0,1.763,1.647,4.74,4.74,0,0,0,4.379.079,5.584,5.584,0,0,0,1.784-1.479v1.976a6.738,6.738,0,0,1-1.91,1.021,6.54,6.54,0,0,1-2.114.345,5.854,5.854,0,0,1-1.842-.293,6.15,6.15,0,0,1-1.677-.859,6.389,6.389,0,0,1-1.993-2.333,6.745,6.745,0,0,1-.687-3.045,7.2,7.2,0,0,1,.459-2.628,6.379,6.379,0,0,1,1.406-2.15,6.1,6.1,0,0,1,2.019-1.378,6.449,6.449,0,0,1,4.425-.129,7.122,7.122,0,0,1,1.914,1.023Zm14.624,3.292a6.768,6.768,0,0,1-.474,2.53,6.3,6.3,0,0,1-1.377,2.111,6.377,6.377,0,0,1-2.082,1.423,6.2,6.2,0,0,1-2.442.5,6.128,6.128,0,0,1-2.433-.5,6.388,6.388,0,0,1-2.075-1.423,6.459,6.459,0,0,1-1.391-2.12,6.943,6.943,0,0,1,0-5.055,6.434,6.434,0,0,1,1.391-2.124,6.284,6.284,0,0,1,2.07-1.41,6.259,6.259,0,0,1,4.887,0,6.381,6.381,0,0,1,3.452,3.525,6.833,6.833,0,0,1,.474,2.543m-6.375,5.162a4.593,4.593,0,0,0,1.864-.388,4.949,4.949,0,0,0,1.594-1.134,5.164,5.164,0,0,0,1.068-1.665,5.374,5.374,0,0,0,.366-1.976,5.482,5.482,0,0,0-.371-2,5.093,5.093,0,0,0-1.063-1.673,4.873,4.873,0,0,0-1.586-1.12,4.691,4.691,0,0,0-5.328,1.12,5.172,5.172,0,0,0-1.07,1.684,5.454,5.454,0,0,0-.367,1.991,5.3,5.3,0,0,0,.364,1.963,5.141,5.141,0,0,0,1.073,1.677,4.944,4.944,0,0,0,1.592,1.137,4.608,4.608,0,0,0,1.863.385m9.5,1.068V36.668l8.725,10v-9.5h1.353v13l-8.723-9.89v9.4Zm14.562,0V37.163h6.287v1.36h-4.871v3.589h4.871V43.5h-4.871v6.18Zm9.287-12.512h1.418V49.677h-1.418Zm5.39,12.512V36.668l8.723,10v-9.5h1.353v13l-8.725-9.89v9.4Zm13.473,0V37.163h2.288a16.105,16.105,0,0,1,3.58.269,4.758,4.758,0,0,1,1.822.9,5.25,5.25,0,0,1,1.556,2.12,8.6,8.6,0,0,1,0,5.937,5.151,5.151,0,0,1-1.558,2.115,4.875,4.875,0,0,1-1.781.9,13.109,13.109,0,0,1-3.107.267h-2.8Zm1.432-1.4h.906a15.342,15.342,0,0,0,3.047-.2A3.246,3.246,0,0,0,199,47.386a4.024,4.024,0,0,0,1.115-1.655,7.211,7.211,0,0,0,.005-4.632A4.035,4.035,0,0,0,199,39.454a3.3,3.3,0,0,0-1.431-.707,14.921,14.921,0,0,0-3.024-.209h-.906Zm10.887-11.111h1.435v7.785a4.2,4.2,0,0,0,.768,2.788,3.73,3.73,0,0,0,4.832,0,4.211,4.211,0,0,0,.768-2.788V37.163h1.442v7.785a5.454,5.454,0,0,1-1.153,3.8,5.4,5.4,0,0,1-6.939,0,5.445,5.445,0,0,1-1.154-3.8Zm17.767,5.564a4.063,4.063,0,0,1,1.756,1.385,3.52,3.52,0,0,1,.59,2.041,3.8,3.8,0,0,1-1.047,2.785,3.745,3.745,0,0,1-2.773,1.054,3.668,3.668,0,0,1-2.362-.757,3.749,3.749,0,0,1-1.289-2.15l1.289-.667a3.424,3.424,0,0,0,.858,1.724,2.066,2.066,0,0,0,1.5.586,2.372,2.372,0,0,0,1.727-.645,2.253,2.253,0,0,0,.659-1.68,2.4,2.4,0,0,0-.461-1.458,3.5,3.5,0,0,0-1.389-1.045l-1.453-.65a4.13,4.13,0,0,1-1.769-1.342,3.294,3.294,0,0,1-.583-1.965,2.861,2.861,0,0,1,.947-2.205,3.41,3.41,0,0,1,2.409-.873,3.513,3.513,0,0,1,1.862.48A3.2,3.2,0,0,1,224,38.752l-1.173.785a3.169,3.169,0,0,0-.9-1.08A1.893,1.893,0,0,0,220.8,38.1a1.76,1.76,0,0,0-1.308.512,1.918,1.918,0,0,0-.119,2.46,3.3,3.3,0,0,0,1.217.864Zm6.865,6.948V38.583h-3.371v-1.42h8.162v1.42h-3.357V49.675Zm7.458,0V37.163h2.8a7.754,7.754,0,0,1,1.755.142,2.515,2.515,0,0,1,.983.483,2.842,2.842,0,0,1,.823,1.166,4.289,4.289,0,0,1,.293,1.62,3.117,3.117,0,0,1-.82,2.336,3.29,3.29,0,0,1-2.4.8H239.8l4.556,5.966h-1.8L238.2,43.709H238v5.966ZM238,38.419v4.187h1.083a3.825,3.825,0,0,0,2.222-.449,1.9,1.9,0,0,0,.564-1.568,2.1,2.1,0,0,0-.578-1.687,3.605,3.605,0,0,0-2.208-.483Zm8.375-1.256h1.418V49.677h-1.418Zm8.89-.5,5.424,13.007h-1.537L257.6,45.836h-4.658L251.4,49.675h-1.541Zm0,3.289-1.9,4.608h3.8Z" transform="translate(-64.374 -19.424)" fill="#fff"/>
    <path id="Tracciato_158" data-name="Tracciato 158" d="M446.322,41.067a5.719,5.719,0,0,0-1.811-1.44,4.832,4.832,0,0,0-2.131-.466,4.445,4.445,0,0,0-1.834.4,4.626,4.626,0,0,0-1.551,1.12,5.088,5.088,0,0,0-1.021,1.661,5.83,5.83,0,0,0-.34,2.029,5.984,5.984,0,0,0,.206,1.608,4.731,4.731,0,0,0,.605,1.351,5.027,5.027,0,0,0,1.755,1.646,4.559,4.559,0,0,0,2.247.577,4.611,4.611,0,0,0,2.1-.5,5.554,5.554,0,0,0,1.772-1.48v1.976a6.594,6.594,0,0,1-1.9,1.021,6.464,6.464,0,0,1-2.1.345,5.775,5.775,0,0,1-1.829-.293,5.961,5.961,0,0,1-1.668-.861,6.351,6.351,0,0,1-1.981-2.333,6.78,6.78,0,0,1-.683-3.042,7.282,7.282,0,0,1,.453-2.629,6.374,6.374,0,0,1,1.4-2.148,6,6,0,0,1,2.007-1.38,6.417,6.417,0,0,1,4.4-.131,7.127,7.127,0,0,1,1.9,1.023Z" transform="translate(-231.051 -20.012)" fill="#fff"/>
    <path id="Tracciato_159" data-name="Tracciato 159" d="M542.8,44.358a6.79,6.79,0,0,1-.471,2.529,6.436,6.436,0,0,1-3.44,3.535,6.114,6.114,0,0,1-4.845,0,6.5,6.5,0,0,1-3.442-3.545,6.7,6.7,0,0,1-.474-2.519,6.777,6.777,0,0,1,.474-2.535,6.437,6.437,0,0,1,3.437-3.535,6.207,6.207,0,0,1,4.859,0,6.381,6.381,0,0,1,3.431,3.527,6.855,6.855,0,0,1,.471,2.543m-6.337,5.16a4.531,4.531,0,0,0,1.851-.388A4.9,4.9,0,0,0,539.9,48a5.1,5.1,0,0,0,1.061-1.667,5.318,5.318,0,0,0,.366-1.974,5.485,5.485,0,0,0-.368-2,5.1,5.1,0,0,0-1.059-1.676,4.819,4.819,0,0,0-1.575-1.12,4.579,4.579,0,0,0-1.86-.383,4.6,4.6,0,0,0-3.435,1.5,5.245,5.245,0,0,0-1.063,1.684,5.464,5.464,0,0,0-.364,1.993,5.318,5.318,0,0,0,.361,1.965A5.173,5.173,0,0,0,533.031,48a4.871,4.871,0,0,0,1.584,1.135,4.514,4.514,0,0,0,1.851.385" transform="translate(-280.83 -20.02)" fill="#fff"/>
    <path id="Tracciato_160" data-name="Tracciato 160" d="M512.519,50.96V38.45h6.253v1.358h-4.843V43.4h4.843v1.384h-4.843v4.795h4.843V50.96Z" transform="translate(-271.5 -20.368)" fill="#fff"/>
    <path id="Tracciato_161" data-name="Tracciato 161" d="M462.55,38.449h1.425v7.786a4.209,4.209,0,0,0,.766,2.786,3.691,3.691,0,0,0,4.8,0,4.209,4.209,0,0,0,.764-2.786V38.449h1.436v7.786a5.494,5.494,0,0,1-1.146,3.8,5.343,5.343,0,0,1-6.9,0,5.476,5.476,0,0,1-1.146-3.8Z" transform="translate(-245.029 -20.368)" fill="#fff"/>
    <path id="Tracciato_162" data-name="Tracciato 162" d="M486.263,50.413V37.406l8.673,10V37.9h1.341v13l-8.672-9.891v9.4Z" transform="translate(-257.591 -19.815)" fill="#fff"/>
  </g>
</svg>
