<svg id="Raggruppa_172" data-name="Raggruppa 172" xmlns="http://www.w3.org/2000/svg" xmlns:xlink="http://www.w3.org/1999/xlink" width="177.592" height="41.736" viewBox="0 0 177.592 41.736">
  <defs>
    <clipPath id="clip-path">
      <rect id="Rettangolo_193" data-name="Rettangolo 193" width="177.592" height="41.736" fill="#fff"/>
    </clipPath>
  </defs>
  <g id="Raggruppa_145" data-name="Raggruppa 145" transform="translate(0 0)">
    <g id="Raggruppa_144" data-name="Raggruppa 144" clip-path="url(#clip-path)">
      <path id="Tracciato_165" data-name="Tracciato 165" d="M17.516,21.629a26.387,26.387,0,0,0,.284-2.986c.037-2.215-.352-3.836-2.034-4.323a1.746,1.746,0,0,0-1.656.4s.125.72.161,1.162a15.137,15.137,0,0,1,.093,1.653,52.415,52.415,0,0,1-1.721,12.216h3.224a71.477,71.477,0,0,0,1.649-8.124" transform="translate(4.874 5.496)" fill="#fff"/>
      <path id="Tracciato_166" data-name="Tracciato 166" d="M10.806,17a2.576,2.576,0,0,1-3.971.873,73.8,73.8,0,0,1-.4,10.823H9.265A49.616,49.616,0,0,0,10.806,17" transform="translate(2.481 6.553)" fill="#fff"/>
      <path id="Tracciato_167" data-name="Tracciato 167" d="M6.354,16.11a1.88,1.88,0,0,0,.538-1.463,3.979,3.979,0,0,0-.1-.69,18.056,18.056,0,0,0-1.165-3.484A1.531,1.531,0,0,0,4.6,9.692c-.19-.06-.357-.112-.384-.278a.246.246,0,0,1,.054-.194c.227-.267,1.179-.259,1.286-.256.043,0,.054-.014.057-.019A.875.875,0,0,0,5.527,8.4c-.107-.244-1.3-.29-2.353-.183H3.163C2.1,8.216.953,12.227.577,13.957a4.657,4.657,0,0,0-.093.69,1.833,1.833,0,0,0,.538,1.43,1.3,1.3,0,0,0,1.176.262A1.581,1.581,0,0,0,3.45,15.21a.129.129,0,0,1,.126-.1.13.13,0,0,1,.127.1,1.6,1.6,0,0,0,1.252,1.162,1.781,1.781,0,0,0,1.4-.262" transform="translate(0.186 3.146)" fill="#fff"/>
      <path id="Tracciato_168" data-name="Tracciato 168" d="M3.241,25.645V14.884a2.022,2.022,0,0,1-3.048-.816c-.072.234-.134.508-.193.8V25.372c1.173-.935,3.026-.345,3.241.273" transform="translate(0 5.423)" fill="#fff"/>
      <path id="Tracciato_169" data-name="Tracciato 169" d="M6.681,24.632c0-1.408-.833-1.837-1.686-1.832-.625.006-1.758.23-1.758,2.113V26.46H6.565c.116-1.359.116-1.829.116-1.829" transform="translate(1.248 8.789)" fill="#fff"/>
      <path id="Tracciato_170" data-name="Tracciato 170" d="M14.445,17.86c0-.324-.006-.644-.019-.957a14.606,14.606,0,0,0-.119-1.621,2.744,2.744,0,0,1-3.526,1.8c.008.2.014.387.014.628,0,.752-.014,2.311-.1,3.184a67.049,67.049,0,0,1-1.361,8.462h3.4a52,52,0,0,0,1.715-11.5" transform="translate(3.598 5.891)" fill="#fff"/>
      <path id="Tracciato_171" data-name="Tracciato 171" d="M9.621,13.32c-.134.147-1.455,1.556-1.455,1.556-.682.679-1.122.647-1.3.639a.666.666,0,0,1-.4-.143c.163.892.29,2.3.29,2.3a1.105,1.105,0,0,0,.36.614,1.6,1.6,0,0,0,1.823.363c1.349-.461,1.686-1.329,1.664-1.965a6.694,6.694,0,0,0-.191-1.092,8.757,8.757,0,0,0-.791-2.274" transform="translate(2.492 5.134)" fill="#fff"/>
      <path id="Tracciato_172" data-name="Tracciato 172" d="M3.269,14.884V25.645c.234-.677,2.445-1.343,3.562.018.114-1.613.352-8.792-.514-11.6a2.023,2.023,0,0,1-3.048.816" transform="translate(1.26 5.423)" fill="#fff"/>
      <path id="Tracciato_173" data-name="Tracciato 173" d="M11.686,10.891A29.722,29.722,0,0,0,9.3,13.377a13.283,13.283,0,0,1,.946,2.594c.079.38.27,1.394.977,1.627a1.688,1.688,0,0,0,1.308-.2,2.484,2.484,0,0,0,1.34-2.031,4.787,4.787,0,0,0-.23-1.149,7.691,7.691,0,0,0-1.951-3.324" transform="translate(3.583 4.198)" fill="#fff"/>
      <path id="Tracciato_174" data-name="Tracciato 174" d="M15.045,9.747a2.855,2.855,0,0,0-2.794.355,4.132,4.132,0,0,0-.682.576,7.251,7.251,0,0,1,2.314,3.861.661.661,0,0,0,1.021.49,2.794,2.794,0,0,1,2.371.258,3.1,3.1,0,0,1,.939,1.07c-.147-3.581-1.776-6.039-3.169-6.61" transform="translate(4.46 3.674)" fill="#fff"/>
      <path id="Tracciato_175" data-name="Tracciato 175" d="M3.284,26.459V24.911c0-1.883-1.132-2.106-1.76-2.111A1.508,1.508,0,0,0,0,23.717v2.742Z" transform="translate(0 8.789)" fill="#fff"/>
      <path id="Tracciato_176" data-name="Tracciato 176" d="M69.574,1.467a4.863,4.863,0,0,0-3.442,1.467A4.917,4.917,0,0,0,64.75,6.493a4.824,4.824,0,0,0,.826,2.851,4.908,4.908,0,0,0,4.066,2.142A5.034,5.034,0,0,0,73.589,9.58v1.906A6.921,6.921,0,0,1,69.524,12.8a6.222,6.222,0,0,1-3.561-1.114A6.114,6.114,0,0,1,63.248,6.51a6.105,6.105,0,0,1,1.89-4.6A6.221,6.221,0,0,1,69.624.134a6.789,6.789,0,0,1,3.965,1.3V3.305a5.174,5.174,0,0,0-4.015-1.839" transform="translate(24.38 0.052)" fill="#fff"/>
    </g>
  </g>
  <path id="Tracciato_177" data-name="Tracciato 177" d="M72.28.341h6.359V1.657H73.714V5.116h4.925V6.448H73.714v4.621h4.925V12.4H72.28Z" transform="translate(27.862 0.132)" fill="#fff"/>
  <path id="Tracciato_178" data-name="Tracciato 178" d="M78.427,0V12.533h1.366V3.475l8.821,9.531V.473H87.25V9.632Z" transform="translate(30.231 0)" fill="#fff"/>
  <path id="Tracciato_179" data-name="Tracciato 179" d="M90.134,1.708H86.727V.342h8.248V1.708h-3.39V12.4H90.134Z" transform="translate(33.431 0.132)" fill="#fff"/>
  <g id="Raggruppa_147" data-name="Raggruppa 147" transform="translate(0 0)">
    <g id="Raggruppa_146" data-name="Raggruppa 146" clip-path="url(#clip-path)">
      <path id="Tracciato_180" data-name="Tracciato 180" d="M95.04,5.586h1.1c1.89,0,2.817-.269,2.817-1.94,0-1.754-.91-2.091-2.817-2.091h-1.1ZM93.641.341h2.833a4.235,4.235,0,0,1,2.767.607,3.335,3.335,0,0,1,1.131,2.682c0,1.974-1.131,3.02-3.256,3.02h-.254l4.605,5.751H99.646l-4.4-5.751h-.2V12.4h-1.4Z" transform="translate(36.096 0.131)" fill="#fff"/>
      <path id="Tracciato_181" data-name="Tracciato 181" d="M109.491,9.98a4.866,4.866,0,0,0,1.451-3.508,4.946,4.946,0,0,0-1.451-3.543,4.929,4.929,0,0,0-6.984,0,4.98,4.98,0,0,0-1.451,3.543,4.9,4.9,0,0,0,1.451,3.508,4.889,4.889,0,0,0,6.984,0m1.079.962a6.539,6.539,0,0,1-9.126,0,6.12,6.12,0,0,1-1.888-4.47,6.162,6.162,0,0,1,1.888-4.488,6.582,6.582,0,0,1,9.126,0,6.143,6.143,0,0,1,1.873,4.488,6.138,6.138,0,0,1-1.873,4.47" transform="translate(38.376 0.056)" fill="#fff"/>
      <path id="Tracciato_182" data-name="Tracciato 182" d="M70.44,19.459a3.76,3.76,0,0,1-7.373.873l1.268-.626c.345,1.433,1.151,2.172,2.336,2.172a2.164,2.164,0,0,0,2.354-2.189A2.529,2.529,0,0,0,67.2,17.336l-1.431-.61a3.24,3.24,0,0,1-2.321-3.11,3.016,3.016,0,0,1,3.308-2.9A3.162,3.162,0,0,1,69.8,12.5l-1.153.741a2.257,2.257,0,0,0-1.991-1.349A1.682,1.682,0,0,0,64.861,13.6c0,.84.51,1.431,1.579,1.893l1.679.741a3.351,3.351,0,0,1,2.321,3.225" transform="translate(24.31 4.132)" fill="#fff"/>
    </g>
  </g>
  <path id="Tracciato_183" data-name="Tracciato 183" d="M69.543,10.921h6.2v1.284h-4.8v3.372h4.8v1.3h-4.8v4.51h4.8v1.3h-6.2Z" transform="translate(26.807 4.21)" fill="#fff"/>
  <g id="Raggruppa_149" data-name="Raggruppa 149" transform="translate(0 0)">
    <g id="Raggruppa_148" data-name="Raggruppa 148" clip-path="url(#clip-path)">
      <path id="Tracciato_184" data-name="Tracciato 184" d="M76.909,16.039h1.07c1.844,0,2.749-.263,2.749-1.893,0-1.711-.888-2.041-2.749-2.041h-1.07Zm-1.366-5.118h2.765a4.131,4.131,0,0,1,2.7.592,3.255,3.255,0,0,1,1.1,2.617c0,1.926-1.1,2.947-3.177,2.947h-.247l4.493,5.611H81.4l-4.3-5.611h-.2v5.611H75.543Z" transform="translate(29.12 4.21)" fill="#fff"/>
    </g>
  </g>
  <path id="Tracciato_185" data-name="Tracciato 185" d="M80.546,10.921H82.06l3.455,9,3.44-9H90.47L85.516,23.149Z" transform="translate(31.048 4.21)" fill="#fff"/>
  <rect id="Rettangolo_196" data-name="Rettangolo 196" width="1.398" height="11.767" transform="translate(122.509 15.131)" fill="#fff"/>
  <path id="Tracciato_186" data-name="Tracciato 186" d="M96.834,12.205H91.468V10.921H99.2l-6.55,10.435h6.289v1.333H90.219Z" transform="translate(34.777 4.21)" fill="#fff"/>
  <rect id="Rettangolo_197" data-name="Rettangolo 197" width="1.398" height="11.767" transform="translate(135.563 15.131)" fill="#fff"/>
  <g id="Raggruppa_151" data-name="Raggruppa 151" transform="translate(0 0)">
    <g id="Raggruppa_150" data-name="Raggruppa 150" clip-path="url(#clip-path)">
      <path id="Tracciato_187" data-name="Tracciato 187" d="M106.111,16.138c2.024,0,3.044-.263,3.044-1.893,0-1.712-1-2.041-3.044-2.041H105.4v3.933Zm-.708,6.551h-1.366V10.922h2.469a4.925,4.925,0,0,1,2.962.592,3.186,3.186,0,0,1,1.2,2.65,3.185,3.185,0,0,1-1.2,2.649,4.9,4.9,0,0,1-2.962.593h-1.1Z" transform="translate(40.103 4.21)" fill="#fff"/>
    </g>
  </g>
  <path id="Tracciato_188" data-name="Tracciato 188" d="M109.883,10.921h6.2v1.284h-4.8v3.372h4.8v1.3h-4.8v4.51h4.8v1.3h-6.2Z" transform="translate(42.357 4.21)" fill="#fff"/>
  <g id="Raggruppa_153" data-name="Raggruppa 153" transform="translate(0 0)">
    <g id="Raggruppa_152" data-name="Raggruppa 152" clip-path="url(#clip-path)">
      <path id="Tracciato_189" data-name="Tracciato 189" d="M117.249,16.039h1.07c1.844,0,2.749-.263,2.749-1.893,0-1.711-.888-2.041-2.749-2.041h-1.07Zm-1.366-5.118h2.765a4.132,4.132,0,0,1,2.7.592,3.255,3.255,0,0,1,1.1,2.617c0,1.926-1.1,2.947-3.177,2.947h-.247l4.493,5.611h-1.778l-4.3-5.611h-.2v5.611h-1.366Z" transform="translate(44.669 4.21)" fill="#fff"/>
    </g>
  </g>
  <path id="Tracciato_190" data-name="Tracciato 190" d="M63.651,21.078V33.139h5.988V31.773H65.085V21.078Z" transform="translate(24.535 8.125)" fill="#fff"/>
  <path id="Tracciato_191" data-name="Tracciato 191" d="M68.612,20.883l1.4.489-2.024,4.368-.945-.388Z" transform="translate(25.843 8.05)" fill="#fff"/>
  <rect id="Rettangolo_200" data-name="Rettangolo 200" width="1.434" height="12.061" transform="translate(98.065 29.203)" fill="#fff"/>
  <path id="Tracciato_192" data-name="Tracciato 192" d="M73.725,33.27h1.366V24.212l8.821,9.531V21.209H82.548V30.37l-8.823-9.633Z" transform="translate(28.419 7.993)" fill="#fff"/>
  <g id="Raggruppa_155" data-name="Raggruppa 155" transform="translate(0 0)">
    <g id="Raggruppa_154" data-name="Raggruppa 154" clip-path="url(#clip-path)">
      <path id="Tracciato_193" data-name="Tracciato 193" d="M85.325,31.789c2.057,0,3.491-.017,4.5-.86A4.763,4.763,0,0,0,91.346,27.1a4.7,4.7,0,0,0-1.518-3.811c-.995-.844-2.429-.877-4.5-.877h-.912v9.378ZM82.963,21.078h2.311c2.261,0,4,0,5.466,1.131a5.883,5.883,0,0,1,2.109,4.909,5.853,5.853,0,0,1-2.109,4.892c-1.4,1.079-2.986,1.129-4.942,1.129H82.963Z" transform="translate(31.98 8.125)" fill="#fff"/>
      <path id="Tracciato_194" data-name="Tracciato 194" d="M93.007,21.078v7.506c0,2.412.978,3.543,3.221,3.543S99.45,31,99.45,28.584V21.078H100.9v7.506c0,3.256-1.534,4.874-4.672,4.874s-4.672-1.618-4.672-4.874V21.078Z" transform="translate(35.292 8.125)" fill="#fff"/>
      <path id="Tracciato_195" data-name="Tracciato 195" d="M107.145,29.828a3.853,3.853,0,0,1-7.556.894l1.3-.64c.355,1.467,1.18,2.226,2.4,2.226a2.218,2.218,0,0,0,2.412-2.244,2.593,2.593,0,0,0-1.872-2.411l-1.469-.625a3.32,3.32,0,0,1-2.377-3.188,3.09,3.09,0,0,1,3.39-2.969,3.238,3.238,0,0,1,3.12,1.822l-1.18.759a2.313,2.313,0,0,0-2.041-1.383,1.723,1.723,0,0,0-1.839,1.754c0,.86.522,1.467,1.62,1.94l1.719.759a3.434,3.434,0,0,1,2.379,3.306" transform="translate(38.389 8.045)" fill="#fff"/>
    </g>
  </g>
  <path id="Tracciato_196" data-name="Tracciato 196" d="M105.285,21.078v1.366h3.41V33.139h1.448V22.444h3.392V21.078Z" transform="translate(40.584 8.125)" fill="#fff"/>
  <g id="Raggruppa_157" data-name="Raggruppa 157" transform="translate(0 0)">
    <g id="Raggruppa_156" data-name="Raggruppa 156" clip-path="url(#clip-path)">
      <path id="Tracciato_197" data-name="Tracciato 197" d="M113.6,26.323h1.1c1.89,0,2.817-.269,2.817-1.94,0-1.754-.91-2.091-2.817-2.091h-1.1Zm-1.4-5.245h2.835a4.231,4.231,0,0,1,2.765.607,3.331,3.331,0,0,1,1.131,2.682c0,1.974-1.131,3.02-3.256,3.02h-.252l4.6,5.751H118.2l-4.4-5.751h-.2v5.751h-1.4Z" transform="translate(43.249 8.125)" fill="#fff"/>
    </g>
  </g>
  <rect id="Rettangolo_203" data-name="Rettangolo 203" width="1.434" height="12.061" transform="translate(164.216 29.203)" fill="#fff"/>
  <path id="Tracciato_198" data-name="Tracciato 198" d="M125.747,23.908l1.922,4.436h-3.846ZM120.28,33.27h1.552l1.568-3.694h4.706l1.568,3.694h1.552l-5.48-12.533Z" transform="translate(46.364 7.993)" fill="#fff"/>
  <g id="Raggruppa_159" data-name="Raggruppa 159" transform="translate(0 0)">
    <g id="Raggruppa_158" data-name="Raggruppa 158" clip-path="url(#clip-path)">
      <path id="Tracciato_199" data-name="Tracciato 199" d="M77.218,31.034H74.027V4.195h3.191ZM61.9,31.71c-4.242,0-7.207-2.253-8.221-6.232l2.891-1.426c.787,3.266,2.627,4.954,5.33,4.954,3.228,0,5.367-2.064,5.367-4.992,0-2.4-1.388-4.167-4.166-5.369l-3.266-1.388c-3.566-1.5-5.294-3.829-5.294-7.095,0-3.753,3.079-6.606,7.547-6.606a7.2,7.2,0,0,1,6.944,4.054L66.407,9.3c-1.164-2.027-2.627-3.079-4.542-3.079a3.836,3.836,0,0,0-4.091,3.9c0,1.915,1.162,3.266,3.6,4.317l3.828,1.689c3.529,1.5,5.294,3.979,5.294,7.358,0,4.916-3.417,8.22-8.6,8.22m-11.147-21.1A11.512,11.512,0,0,0,41.82,6.522a10.809,10.809,0,0,0-7.657,3.266,10.931,10.931,0,0,0-3.079,7.921,10.724,10.724,0,0,0,1.84,6.344,10.915,10.915,0,0,0,9.047,4.766,11.2,11.2,0,0,0,8.784-4.241v4.241a15.39,15.39,0,0,1-9.047,2.929,13.846,13.846,0,0,1-7.921-2.479,13.6,13.6,0,0,1-6.043-11.523A13.589,13.589,0,0,1,31.949,7.5a13.853,13.853,0,0,1,9.985-3.94,15.114,15.114,0,0,1,8.821,2.889ZM0,.192V15.569a24.6,24.6,0,0,1,1.671-4.129,1.858,1.858,0,0,1,1.244-1.1,6.2,6.2,0,0,1,1.029-.085,5.334,5.334,0,0,1,1.686.132,1.979,1.979,0,0,1,.819.628,7.492,7.492,0,0,1,1.556,0c.7.1.7,1.638.617,2.009a.16.16,0,0,1-.163.133c-.134,0-.24-.341-.24-.341-.05-.194.01-.317-.41-.27s-1.2.1-1.2.1a41.227,41.227,0,0,1,1.66,5.513v.021c.06.233.123.472.183.723,0,0,.133.633.655.587,0,0,.414.079,1.258-.83,0,0,4.21-4.817,5.834-5.93,1.481-1.013,6.585-1.973,7.522,6.918.5,4.727-.4,9.831-1.758,15.534H84.548V.192Z" transform="translate(0 0.074)" fill="#fff"/>
      <path id="Tracciato_200" data-name="Tracciato 200" d="M2.335,29.8A1.038,1.038,0,0,1,1.212,30.87a1.03,1.03,0,0,1-1.074-.813l.378-.187c.1.427.342.647.7.647a.645.645,0,0,0,.7-.651.756.756,0,0,0-.544-.7l-.427-.181a.964.964,0,0,1-.693-.927.9.9,0,0,1,.986-.863.943.943,0,0,1,.907.529l-.344.222a.674.674,0,0,0-.593-.4.5.5,0,0,0-.535.51c0,.249.152.427.471.564l.5.22a1,1,0,0,1,.691.962" transform="translate(0.053 10.482)" fill="#fff"/>
      <path id="Tracciato_201" data-name="Tracciato 201" d="M4.9,30.055a1.411,1.411,0,0,0,.423-1.02A1.439,1.439,0,0,0,4.9,28a1.433,1.433,0,0,0-2.03,0,1.451,1.451,0,0,0-.423,1.031,1.426,1.426,0,0,0,.423,1.02,1.42,1.42,0,0,0,2.03,0m.315.28a1.9,1.9,0,0,1-2.653,0,1.817,1.817,0,0,1,0-2.6,1.913,1.913,0,0,1,2.653,0,1.83,1.83,0,0,1,0,2.6" transform="translate(0.774 10.483)" fill="#fff"/>
      <path id="Tracciato_202" data-name="Tracciato 202" d="M6.926,27.58a1.407,1.407,0,0,0-1,.427,1.429,1.429,0,0,0-.4,1.035,1.4,1.4,0,0,0,.241.829,1.427,1.427,0,0,0,1.182.623,1.467,1.467,0,0,0,1.149-.554v.554a2.022,2.022,0,0,1-1.183.382,1.8,1.8,0,0,1-1.035-.324,1.863,1.863,0,0,1-.24-2.844,1.809,1.809,0,0,1,1.305-.515,1.97,1.97,0,0,1,1.153.378v.544a1.505,1.505,0,0,0-1.168-.535" transform="translate(1.961 10.482)" fill="#fff"/>
    </g>
  </g>
  <rect id="Rettangolo_205" data-name="Rettangolo 205" width="0.417" height="3.507" transform="translate(10.769 37.757)" fill="#fff"/>
  <path id="Tracciato_203" data-name="Tracciato 203" d="M8.686,27.252v3.507h1.851v-.387H9.1V29.028h1.434V28.64H9.1V27.634h1.434v-.382Z" transform="translate(3.348 10.505)" fill="#fff"/>
  <path id="Tracciato_204" data-name="Tracciato 204" d="M10.257,27.252v.4h.991v3.11h.424v-3.11h.986v-.4Z" transform="translate(3.954 10.505)" fill="#fff"/>
  <path id="Tracciato_205" data-name="Tracciato 205" d="M13.567,28.365l.56,1.291H13.008Zm-1.588,2.722h.45l.456-1.074h1.369l.456,1.074h.452l-1.595-3.644Zm.966-4.688.68.834h.29l-.49-.834Z" transform="translate(4.618 10.176)" fill="#fff"/>
  <g id="Raggruppa_161" data-name="Raggruppa 161" transform="translate(0 0)">
    <g id="Raggruppa_160" data-name="Raggruppa 160" clip-path="url(#clip-path)">
      <path id="Tracciato_206" data-name="Tracciato 206" d="M16.268,30.367a2.006,2.006,0,0,0,1.309-.251A1.386,1.386,0,0,0,18.018,29a1.364,1.364,0,0,0-.441-1.108,1.99,1.99,0,0,0-1.309-.255H16v2.727Zm-.687-3.115h.672a2.441,2.441,0,0,1,1.589.328,1.961,1.961,0,0,1,0,2.85,2.175,2.175,0,0,1-1.437.328h-.824Z" transform="translate(6.006 10.505)" fill="#fff"/>
    </g>
  </g>
  <rect id="Rettangolo_207" data-name="Rettangolo 207" width="0.417" height="3.507" transform="translate(25.148 37.757)" fill="#fff"/>
  <g id="Raggruppa_163" data-name="Raggruppa 163" transform="translate(0 0)">
    <g id="Raggruppa_162" data-name="Raggruppa 162" clip-path="url(#clip-path)">
      <path id="Tracciato_207" data-name="Tracciato 207" d="M21.831,27.58a1.407,1.407,0,0,0-1,.427,1.429,1.429,0,0,0-.4,1.035,1.4,1.4,0,0,0,.241.829,1.427,1.427,0,0,0,1.182.623A1.467,1.467,0,0,0,23,29.939v.554a2.022,2.022,0,0,1-1.183.382,1.8,1.8,0,0,1-1.035-.324,1.863,1.863,0,0,1-.24-2.844,1.809,1.809,0,0,1,1.305-.515A1.97,1.97,0,0,1,23,27.57v.544a1.505,1.505,0,0,0-1.168-.535" transform="translate(7.706 10.482)" fill="#fff"/>
      <path id="Tracciato_208" data-name="Tracciato 208" d="M25.447,30.055a1.411,1.411,0,0,0,.423-1.02A1.439,1.439,0,0,0,25.447,28a1.433,1.433,0,0,0-2.03,0,1.451,1.451,0,0,0-.423,1.031,1.426,1.426,0,0,0,.423,1.02,1.42,1.42,0,0,0,2.03,0m.314.28a1.9,1.9,0,0,1-2.653,0,1.817,1.817,0,0,1,0-2.6,1.913,1.913,0,0,1,2.653,0,1.83,1.83,0,0,1,0,2.6" transform="translate(8.695 10.483)" fill="#fff"/>
    </g>
  </g>
  <path id="Tracciato_209" data-name="Tracciato 209" d="M25.754,30.8h.4V28.163l2.565,2.771V27.29h-.4v2.664l-2.566-2.8Z" transform="translate(9.927 10.467)" fill="#fff"/>
  <path id="Tracciato_210" data-name="Tracciato 210" d="M28.5,27.252v3.507h.417v-1.73h1.434V28.64H28.914V27.634h1.434v-.382Z" transform="translate(10.985 10.505)" fill="#fff"/>
  <rect id="Rettangolo_209" data-name="Rettangolo 209" width="0.417" height="3.507" transform="translate(41.973 37.757)" fill="#fff"/>
  <path id="Tracciato_211" data-name="Tracciato 211" d="M31.208,30.8h.4V28.163l2.565,2.771V27.29h-.4v2.664l-2.564-2.8Z" transform="translate(12.03 10.467)" fill="#fff"/>
  <g id="Raggruppa_165" data-name="Raggruppa 165" transform="translate(0 0)">
    <g id="Raggruppa_164" data-name="Raggruppa 164" clip-path="url(#clip-path)">
      <path id="Tracciato_212" data-name="Tracciato 212" d="M34.639,30.367a2.006,2.006,0,0,0,1.309-.251A1.386,1.386,0,0,0,36.389,29a1.364,1.364,0,0,0-.441-1.108,1.99,1.99,0,0,0-1.309-.255h-.266v2.727Zm-.687-3.115h.672a2.441,2.441,0,0,1,1.589.328,1.961,1.961,0,0,1,0,2.85,2.175,2.175,0,0,1-1.437.328h-.824Z" transform="translate(13.087 10.505)" fill="#fff"/>
      <path id="Tracciato_213" data-name="Tracciato 213" d="M36.929,27.252v2.182c0,.7.284,1.031.937,1.031s.937-.328.937-1.031V27.252h.423v2.182c0,.948-.446,1.417-1.359,1.417s-1.358-.47-1.358-1.417V27.252Z" transform="translate(14.073 10.505)" fill="#fff"/>
      <path id="Tracciato_214" data-name="Tracciato 214" d="M41.1,29.8a1.121,1.121,0,0,1-2.2.26l.378-.187c.1.427.342.647.7.647a.645.645,0,0,0,.7-.651.756.756,0,0,0-.544-.7l-.427-.181a.964.964,0,0,1-.693-.927A.9.9,0,0,1,40,27.192a.943.943,0,0,1,.907.529l-.344.222a.674.674,0,0,0-.593-.4.5.5,0,0,0-.535.51c0,.249.152.427.471.564l.5.22a1,1,0,0,1,.691.962" transform="translate(14.995 10.482)" fill="#fff"/>
    </g>
  </g>
  <path id="Tracciato_215" data-name="Tracciato 215" d="M40.613,27.252v.4H41.6v3.11h.424v-3.11h.985v-.4Z" transform="translate(15.655 10.505)" fill="#fff"/>
  <g id="Raggruppa_167" data-name="Raggruppa 167" transform="translate(0 0)">
    <g id="Raggruppa_166" data-name="Raggruppa 166" clip-path="url(#clip-path)">
      <path id="Tracciato_216" data-name="Tracciato 216" d="M43.087,28.777h.319c.549,0,.819-.079.819-.564,0-.51-.265-.608-.819-.608h-.319Zm-.407-1.525H43.5a1.232,1.232,0,0,1,.8.176.972.972,0,0,1,.33.78c0,.574-.33.878-.948.878h-.073l1.34,1.672h-.531l-1.28-1.672h-.058v1.672H42.68Z" transform="translate(16.452 10.505)" fill="#fff"/>
    </g>
  </g>
  <rect id="Rettangolo_212" data-name="Rettangolo 212" width="0.417" height="3.507" transform="translate(61.76 37.757)" fill="#fff"/>
  <path id="Tracciato_217" data-name="Tracciato 217" d="M46.734,28.074l.56,1.291H46.172ZM45.143,30.8h.452l.456-1.074h1.369l.456,1.074h.453l-1.595-3.644Z" transform="translate(17.401 10.467)" fill="#fff"/>
  <g id="Raggruppa_169" data-name="Raggruppa 169" transform="translate(0 0)">
    <g id="Raggruppa_168" data-name="Raggruppa 168" clip-path="url(#clip-path)">
      <path id="Tracciato_218" data-name="Tracciato 218" d="M50.47,27.58a1.407,1.407,0,0,0-1,.427,1.429,1.429,0,0,0-.4,1.035,1.4,1.4,0,0,0,.241.829,1.427,1.427,0,0,0,1.182.623,1.467,1.467,0,0,0,1.149-.554v.554a2.022,2.022,0,0,1-1.183.382,1.8,1.8,0,0,1-1.035-.324,1.863,1.863,0,0,1-.24-2.844,1.809,1.809,0,0,1,1.305-.515,1.97,1.97,0,0,1,1.153.378v.544a1.505,1.505,0,0,0-1.168-.535" transform="translate(18.745 10.482)" fill="#fff"/>
      <path id="Tracciato_219" data-name="Tracciato 219" d="M51.724,27.252v2.182c0,.7.284,1.031.937,1.031s.937-.328.937-1.031V27.252h.423v2.182c0,.948-.446,1.417-1.359,1.417s-1.358-.47-1.358-1.417V27.252Z" transform="translate(19.776 10.505)" fill="#fff"/>
    </g>
  </g>
  <path id="Tracciato_220" data-name="Tracciato 220" d="M53.861,30.8h.4V28.163l2.564,2.771V27.29h-.4v2.664l-2.565-2.8Z" transform="translate(20.762 10.467)" fill="#fff"/>
  <path id="Tracciato_221" data-name="Tracciato 221" d="M56.6,27.252v3.507h1.851v-.387H57.022V29.028h1.434V28.64H57.022V27.634h1.434v-.382Z" transform="translate(21.819 10.505)" fill="#fff"/>
  <g id="Raggruppa_171" data-name="Raggruppa 171" transform="translate(0 0)">
    <g id="Raggruppa_170" data-name="Raggruppa 170" clip-path="url(#clip-path)">
      <path id="Tracciato_222" data-name="Tracciato 222" d="M61.221,30.055a1.411,1.411,0,0,0,.423-1.02A1.439,1.439,0,0,0,61.221,28a1.433,1.433,0,0,0-2.03,0,1.451,1.451,0,0,0-.423,1.031,1.426,1.426,0,0,0,.423,1.02,1.42,1.42,0,0,0,2.03,0m.314.28a1.9,1.9,0,0,1-2.653,0,1.817,1.817,0,0,1,0-2.6,1.913,1.913,0,0,1,2.653,0,1.83,1.83,0,0,1,0,2.6" transform="translate(22.485 10.483)" fill="#fff"/>
    </g>
  </g>
</svg>
