<svg id="Raggruppa_121" data-name="Raggruppa 121" xmlns="http://www.w3.org/2000/svg" xmlns:xlink="http://www.w3.org/1999/xlink" width="84.357" height="77.552" viewBox="0 0 84.357 77.552">
  <defs>
    <clipPath id="clip-path">
      <rect id="Rettangolo_12" data-name="Rettangolo 12" width="84.357" height="77.552" fill="#fff"/>
    </clipPath>
  </defs>
  <g id="Raggruppa_18" data-name="Raggruppa 18" transform="translate(0 0)" clip-path="url(#clip-path)">
    <path id="Tracciato_64" data-name="Tracciato 64" d="M43.381,15.568a1.328,1.328,0,0,0-1.257.9c-1.395,4.078-4.09,7.813-6.943,11.768C30.717,34.422,26.1,40.82,26.1,49.2a17.284,17.284,0,0,0,34.559,0c0-7.553-4.529-14.072-8.91-20.376-2.925-4.21-5.687-8.186-7.112-12.352a1.33,1.33,0,0,0-1.258-.9M58,49.2a14.627,14.627,0,0,1-29.242,0c0-7.516,4.36-13.56,8.578-19.406a66.67,66.67,0,0,0,6.036-9.432,74.838,74.838,0,0,0,6.193,9.979C53.714,36.3,58,42.476,58,49.2" transform="translate(-1.202 -0.718)" fill="#fff"/>
    <path id="Tracciato_65" data-name="Tracciato 65" d="M84.366,46.724,79.4,39.81a1.329,1.329,0,0,0-2.073-.11l-5.658,6.36a1.329,1.329,0,0,0,1.986,1.767l3-3.372A34.32,34.32,0,0,1,8.707,48.273a1.556,1.556,0,0,0-.653-1,1.534,1.534,0,0,0-1.167-.244,1.559,1.559,0,0,0-1.246,1.819,37.439,37.439,0,0,0,74.117-3.985l2.449,3.413a1.329,1.329,0,0,0,2.16-1.55" transform="translate(-0.259 -1.809)" fill="#fff"/>
    <path id="Tracciato_66" data-name="Tracciato 66" d="M6.222,40.1l.07,0a1.33,1.33,0,0,0,.993-.445L12.941,33.3a1.329,1.329,0,0,0-1.986-1.767l-3,3.372a34.32,34.32,0,0,1,67.954-3.819,1.559,1.559,0,1,0,3.065-.574A37.439,37.439,0,0,0,4.858,34.5L2.41,31.086a1.33,1.33,0,1,0-2.161,1.55l4.962,6.915a1.326,1.326,0,0,0,1.01.552" transform="translate(0 0)" fill="#fff"/>
    <path id="Tracciato_67" data-name="Tracciato 67" d="M42.822,59.707a1.329,1.329,0,0,0,1.329,1.329c5.864,0,10.633-4.173,10.633-9.3a1.329,1.329,0,0,0-2.659,0c0,3.664-3.577,6.646-7.975,6.646a1.329,1.329,0,0,0-1.329,1.329" transform="translate(-1.973 -2.322)" fill="#fff"/>
  </g>
</svg>
