<svg id="Raggruppa_122" data-name="Raggruppa 122" xmlns="http://www.w3.org/2000/svg" xmlns:xlink="http://www.w3.org/1999/xlink" width="92.57" height="78.869" viewBox="0 0 92.57 78.869">
  <defs>
    <clipPath id="clip-path">
      <rect id="Rettangolo_4" data-name="Rettangolo 4" width="92.57" height="78.869" fill="#fff"/>
    </clipPath>
  </defs>
  <g id="Raggruppa_5" data-name="Raggruppa 5" transform="translate(0 0)" clip-path="url(#clip-path)">
    <path id="Tracciato_47" data-name="Tracciato 47" d="M41.007,69.905A20.1,20.1,0,0,1,21.793,55.481,17.215,17.215,0,0,1,8.558,24.007,20.164,20.164,0,0,1,26.784,4.6a19.84,19.84,0,0,1,12.5,3.1A21.709,21.709,0,0,1,53.918.085,21.982,21.982,0,0,1,77.577,19.574,25.637,25.637,0,0,1,86.7,59.22a24.971,24.971,0,0,1-17.145,9.021,25.231,25.231,0,0,1-15.163-3.512,19.9,19.9,0,0,1-11.613,5.1q-.893.08-1.772.079M22.951,51.7a1.643,1.643,0,0,1,1.611,1.318A16.812,16.812,0,0,0,42.49,66.553,16.63,16.63,0,0,0,53,61.506a1.646,1.646,0,0,1,2.1-.221,21.8,21.8,0,0,0,29.068-4.161A22.346,22.346,0,0,0,75.4,22.214a1.643,1.643,0,0,1-1.02-1.377c-.01-.11-.012-.217-.015-.325A18.711,18.711,0,0,0,54.206,3.359,18.45,18.45,0,0,0,40.944,10.9a1.64,1.64,0,0,1-1.09.657,1.659,1.659,0,0,1-1.232-.32A16.638,16.638,0,0,0,27.073,7.871a16.87,16.87,0,0,0-15.237,17.1,1.646,1.646,0,0,1-.907,1.495A13.945,13.945,0,0,0,18.3,52.8a13.607,13.607,0,0,0,4.021-.983,1.64,1.64,0,0,1,.63-.125M11.325,78.869a8.588,8.588,0,1,1,8.624-8.589,8.616,8.616,0,0,1-8.624,8.589m0-13.89a5.3,5.3,0,1,0,5.337,5.3,5.325,5.325,0,0,0-5.337-5.3m65.32-12.458a1.437,1.437,0,0,0-1.438-1.438H70.1c-.276,0-.509-.31-.509-.676V48.788c0-.365.234-.675.509-.675h3.252a3.474,3.474,0,0,0,3.385-3.551V42.944a3.476,3.476,0,0,0-3.385-3.552H69.285a1.438,1.438,0,0,0,0,2.876h4.068c.276,0,.509.309.509.676v1.618c0,.365-.234.675-.509.675H70.1a3.475,3.475,0,0,0-3.385,3.551v1.619A3.475,3.475,0,0,0,70.1,53.958h5.107a1.437,1.437,0,0,0,1.438-1.438M53.537,47.909A10.969,10.969,0,0,1,42.58,36.952V32.319a10.957,10.957,0,1,1,21.914,0v4.633A10.969,10.969,0,0,1,53.537,47.909m0-23.261a7.679,7.679,0,0,0-7.671,7.671v4.633a7.671,7.671,0,1,0,15.341,0V32.319a7.679,7.679,0,0,0-7.671-7.671M36.7,38.543a7.668,7.668,0,0,1-15.17-1.59V32.319A7.66,7.66,0,0,1,36.734,31h3.332A10.953,10.953,0,0,0,18.24,32.319v4.633a10.95,10.95,0,0,0,21.785,1.59Z" transform="translate(0 0)" fill="#fff"/>
  </g>
</svg>
