<svg id="Raggruppa_128" data-name="Raggruppa 128" xmlns="http://www.w3.org/2000/svg" xmlns:xlink="http://www.w3.org/1999/xlink" width="61.631" height="66.105" viewBox="0 0 61.631 66.105">
  <defs>
    <clipPath id="clip-path">
      <rect id="Rettangolo_13" data-name="Rettangolo 13" width="61.631" height="66.105" fill="#fff"/>
    </clipPath>
  </defs>
  <g id="Raggruppa_20" data-name="Raggruppa 20" transform="translate(0 0)" clip-path="url(#clip-path)">
    <path id="Tracciato_68" data-name="Tracciato 68" d="M61.486,32.253c-.041-.729-.076-1.358-.076-1.808a1.247,1.247,0,0,0-2.129-.882c-1.724,1.725-3.918,1.987-6.956,2.35a31.228,31.228,0,0,0-12.58,3.7,11.394,11.394,0,0,0-5.513,7.831,16.412,16.412,0,0,0-.336,4.869,1.247,1.247,0,0,0,2.479-.275,14.075,14.075,0,0,1,.3-4.115,8.842,8.842,0,0,1,4.276-6.13,28.7,28.7,0,0,1,11.669-3.4,17.54,17.54,0,0,0,6.4-1.555c.249,4.449.567,12.32-4.454,16.742-3.476,3.062-9.074,4.015-16.654,2.841A49.113,49.113,0,0,1,50.362,41.95,1.246,1.246,0,1,0,49.106,39.8c-8.212,4.79-13.894,10.985-16.9,16.615V37.887A12.735,12.735,0,0,0,43.681,25.232V19.179h.839a1.248,1.248,0,0,0,1.247-1.247V13.76a1.248,1.248,0,0,0-1.247-1.247H41.6V3.332a3.333,3.333,0,0,0-6.665,0v9.182H28.039V3.332a3.333,3.333,0,0,0-6.665,0v9.182H17.406A1.248,1.248,0,0,0,16.16,13.76v4.172a1.249,1.249,0,0,0,1.247,1.247h.839v6.053c0,.055,0,.112,0,.168a44.571,44.571,0,0,0-8.288-2.3c-3.191-.64-5.5-1.1-7.316-2.921a1.247,1.247,0,0,0-2.116.7C-.386,27.3-.9,39,5.924,45.272c2.96,2.719,6.978,4.1,11.943,4.1a36.364,36.364,0,0,0,7.885-.963c2.422,3.4,3.965,6.946,3.965,10.195v6.257a1.247,1.247,0,0,0,2.494,0c0-3.252,1.545-6.8,3.97-10.2a42.833,42.833,0,0,0,7.537.74c5.321,0,9.526-1.328,12.5-3.946,6.056-5.334,5.544-14.344,5.27-19.194m-50.37,1.735a1.246,1.246,0,0,0,.449,1.7A49.084,49.084,0,0,1,24.059,46.216c-7.334,1.445-12.863.512-16.449-2.782-2.383-2.189-6.163-7.693-4.878-20.041a20.281,20.281,0,0,0,6.743,2.152,39.1,39.1,0,0,1,9.145,2.723,12.722,12.722,0,0,0,11.1,9.618V50.155c-3-5.629-8.684-11.825-16.9-16.616a1.248,1.248,0,0,0-1.706.449m14.43-21.475H23.867V3.332a.839.839,0,0,1,1.678,0Zm17.728,2.494v1.678H29.92a1.247,1.247,0,0,0,0,2.494H41.187v6.053a10.215,10.215,0,0,1-14.344,9.352h0a10.251,10.251,0,0,1-6.1-9.351V19.179h1.881a1.247,1.247,0,0,0,0-2.494H18.654V15.007ZM39.1,12.514H37.425V3.332a.839.839,0,0,1,1.677,0Z" transform="translate(0 0)" fill="#fff"/>
  </g>
</svg>
