<svg id="Raggruppa_123" data-name="Raggruppa 123" xmlns="http://www.w3.org/2000/svg" xmlns:xlink="http://www.w3.org/1999/xlink" width="73.413" height="70.354" viewBox="0 0 73.413 70.354">
  <defs>
    <clipPath id="clip-path">
      <rect id="Rettangolo_7" data-name="Rettangolo 7" width="73.413" height="70.353" fill="#fff"/>
    </clipPath>
  </defs>
  <rect id="Rettangolo_5" data-name="Rettangolo 5" width="3.059" height="3.059" transform="translate(45.883 15.294)" fill="#fff"/>
  <rect id="Rettangolo_6" data-name="Rettangolo 6" width="3.059" height="3.059" transform="translate(24.47 29.06)" fill="#fff"/>
  <g id="Raggruppa_8" data-name="Raggruppa 8" transform="translate(0 0)">
    <g id="Raggruppa_7" data-name="Raggruppa 7" clip-path="url(#clip-path)">
      <path id="Tracciato_48" data-name="Tracciato 48" d="M72.7,25.763a1.529,1.529,0,1,0-1.637-2.583L56.588,32.347V28.321L72.7,18.116a1.53,1.53,0,0,0-.008-2.589L48.223.233a1.53,1.53,0,0,0-1.639.01L30.66,10.477l-.871-.547a1.529,1.529,0,0,0-1.6-.014L16.852,16.753a1.528,1.528,0,0,0-.066,2.577l.014.01L.724,29.289a1.53,1.53,0,0,0-.006,2.6l24.47,15.292a1.528,1.528,0,0,0,1.63,0l14.475-9.167v4.05L26.036,51.7,2.4,35.445A1.53,1.53,0,1,0,.663,37.967L25.133,54.79a1.532,1.532,0,0,0,1.684.033l14.477-9.146v4L26.035,59.344,2.4,43.093A1.53,1.53,0,1,0,.663,45.614l24.47,16.824a1.531,1.531,0,0,0,1.686.031L41.294,53.3v4.027L26.035,66.992,2.4,50.74A1.53,1.53,0,1,0,.663,53.261l24.47,16.824a1.531,1.531,0,0,0,1.686.031l14.731-9.329a1.5,1.5,0,0,0,1.274.7,1.542,1.542,0,0,0,.829-.243l12.235-7.891a1.531,1.531,0,0,0,.7-1.286v-.8L72.7,41.057a1.53,1.53,0,1,0-1.637-2.584L56.588,47.64V43.615L72.7,33.411a1.53,1.53,0,1,0-1.637-2.584L56.588,39.994V35.967ZM47.424,3.341,69.01,16.832l-14.047,8.9-2.08-1.3L61.628,18.9,59.584,17.6a1.884,1.884,0,0,1-.3-.232,2.07,2.07,0,0,1,.3-.226l2.044-1.293L49.14,7.96l-.817.516a3,3,0,0,1-3.18,0l-.817-.517L35.52,13.527l-2-1.253Zm8.993,15.232-6.4,4.048L38.392,15.33l6.015-3.8a6.079,6.079,0,0,0,4.653,0l7.349,4.645a2.745,2.745,0,0,0-.275,1.193,2.8,2.8,0,0,0,.282,1.207m-30.423,25.5L4.425,30.6l15.154-9.378L21.4,22.45l-9.635,6.092,2.044,1.293a2.1,2.1,0,0,1,.306.228,1.89,1.89,0,0,1-.291.218l-2.046,1.293,12.491,7.9.818-.519a2.937,2.937,0,0,1,3.162.01l.817.516,9.059-5.726,2.016,1.362Zm-9-15.217,7.179-4.539,11.192,7.564L28.99,35.911a6.064,6.064,0,0,0-4.637-.009L16.99,31.249a2.771,2.771,0,0,0,.277-1.191,2.741,2.741,0,0,0-.278-1.2M44.353,57.147V35.08a1.53,1.53,0,0,0-.673-1.267L20.5,18.151l-.01-.008-.013-.009,8.48-5.113L53.53,28.442V50.366c0,.01,0,.02,0,.031v.834Z" transform="translate(0 0)" fill="#fff"/>
    </g>
  </g>
</svg>
