<svg id="Raggruppa_130" data-name="Raggruppa 130" xmlns="http://www.w3.org/2000/svg" xmlns:xlink="http://www.w3.org/1999/xlink" width="77.72" height="80.801" viewBox="0 0 77.72 80.801">
  <defs>
    <clipPath id="clip-path">
      <rect id="Rettangolo_15" data-name="Rettangolo 15" width="77.72" height="80.801" fill="#fff"/>
    </clipPath>
  </defs>
  <g id="Raggruppa_24" data-name="Raggruppa 24" transform="translate(0 0)" clip-path="url(#clip-path)">
    <path id="Tracciato_72" data-name="Tracciato 72" d="M77.668,72.273,59.828,49.821a1.717,1.717,0,0,0-2.4-.283l-.488.383-3.828-4.891a26.7,26.7,0,0,0,1.574-34.778A26.45,26.45,0,0,0,45.158,2.6,26.962,26.962,0,0,0,33.631,0,26.711,26.711,0,0,0,12.609,43.19a26.451,26.451,0,0,0,9.531,7.651,26.964,26.964,0,0,0,11.526,2.6,26.5,26.5,0,0,0,13.076-3.43l3.831,4.9-.488.383A1.713,1.713,0,0,0,49.8,57.7L67.639,80.154a1.711,1.711,0,0,0,2.4.282l7.347-5.751a1.7,1.7,0,0,0,.647-1.147,1.728,1.728,0,0,0-.361-1.266M54.391,56.267l3.316-2.6,0,0,.5-.387L73.914,73.052l-4.651,3.642L53.553,56.922ZM33.666,50.018A23.3,23.3,0,0,1,19.29,8.376,23.285,23.285,0,0,1,56.762,29.538a23.277,23.277,0,0,1-23.1,20.48m16.941-2.639,3.641,4.651-.978.765-3.641-4.651Z" transform="translate(-0.319 0)" fill="#fff"/>
    <path id="Tracciato_73" data-name="Tracciato 73" d="M28.09,57H20.041a1.714,1.714,0,0,0-1.712,1.712V75.051a1.712,1.712,0,1,0,3.424,0V60.421h4.625v14.63a1.712,1.712,0,1,0,3.425,0V58.709A1.714,1.714,0,0,0,28.09,57" transform="translate(-0.844 -2.625)" fill="#fff"/>
    <path id="Tracciato_74" data-name="Tracciato 74" d="M35.978,59.191A1.714,1.714,0,0,0,34.266,60.9V75.152a1.712,1.712,0,1,0,3.424,0V60.9a1.714,1.714,0,0,0-1.711-1.712" transform="translate(-1.579 -2.726)" fill="#fff"/>
    <path id="Tracciato_75" data-name="Tracciato 75" d="M44.415,57.278A1.714,1.714,0,0,0,42.7,58.989V74.972a1.712,1.712,0,1,0,3.425,0V58.989a1.714,1.714,0,0,0-1.712-1.711" transform="translate(-1.967 -2.638)" fill="#fff"/>
    <path id="Tracciato_76" data-name="Tracciato 76" d="M44.027,36.372H35.978a1.714,1.714,0,0,0-1.712,1.712V46.16a1.712,1.712,0,1,0,3.424,0V39.8h4.625v5a1.712,1.712,0,1,0,3.425,0V38.084a1.714,1.714,0,0,0-1.712-1.712" transform="translate(-1.579 -1.675)" fill="#fff"/>
    <path id="Tracciato_77" data-name="Tracciato 77" d="M12.147,68.951H4a1.713,1.713,0,0,0-1.71,1.712v4.894a1.711,1.711,0,1,0,3.423,0V72.375h4.72V75.6a1.712,1.712,0,1,0,3.424,0V70.663a1.714,1.714,0,0,0-1.711-1.712" transform="translate(-0.106 -3.176)" fill="#fff"/>
    <path id="Tracciato_78" data-name="Tracciato 78" d="M33.608,27.325A1.712,1.712,0,1,0,37,26.848l-1.54-10.934a1.711,1.711,0,0,0-2.765-1.1l-9.286,7.443a1.712,1.712,0,0,0,.509,2.953l3.8,1.316a64.727,64.727,0,0,1-7.782,14.023,1.711,1.711,0,1,0,2.77,2.01,67.522,67.522,0,0,0,8.849-16.485,1.713,1.713,0,0,0-1.047-2.2l-2.541-.88,4.523-3.624Z" transform="translate(-0.903 -0.665)" fill="#fff"/>
    <path id="Tracciato_79" data-name="Tracciato 79" d="M13.022,50.718a1.7,1.7,0,0,0-1.164.6A48.318,48.318,0,0,1,.779,60.853a1.711,1.711,0,0,0,1.866,2.869A51.536,51.536,0,0,0,14.473,53.528a1.709,1.709,0,0,0-.2-2.412,1.683,1.683,0,0,0-1.248-.4" transform="translate(0 -2.336)" fill="#fff"/>
    <path id="Tracciato_80" data-name="Tracciato 80" d="M53.628,25.564A1.714,1.714,0,0,0,52.1,27.442l0,.045c-.01.1-.013.231-.013.411a1.709,1.709,0,1,0,3.418.006,1.914,1.914,0,0,0,.028-.5c0-.049-.01-.109-.023-.234l-.009-.08a1.715,1.715,0,0,0-1.877-1.528" transform="translate(-2.4 -1.177)" fill="#fff"/>
    <path id="Tracciato_81" data-name="Tracciato 81" d="M52.961,23.361a1.711,1.711,0,0,0,1.123-2.143A19.84,19.84,0,0,0,42.9,8.894a1.712,1.712,0,0,0-1.334,3.155,16.342,16.342,0,0,1,9.252,10.19,1.7,1.7,0,0,0,1.633,1.2,1.737,1.737,0,0,0,.511-.078" transform="translate(-1.867 -0.403)" fill="#fff"/>
  </g>
</svg>
