<svg id="Raggruppa_126" data-name="Raggruppa 126" xmlns="http://www.w3.org/2000/svg" xmlns:xlink="http://www.w3.org/1999/xlink" width="73.825" height="80.13" viewBox="0 0 73.825 80.13">
  <defs>
    <clipPath id="clip-path">
      <rect id="Rettangolo_10" data-name="Rettangolo 10" width="73.825" height="80.13" fill="#fff"/>
    </clipPath>
  </defs>
  <g id="Raggruppa_14" data-name="Raggruppa 14" clip-path="url(#clip-path)">
    <path id="Tracciato_58" data-name="Tracciato 58" d="M59.507,43.272q-.923,0-1.784.034L25.37,27.329c2.412-1.1,3.563-2.56,3.563-3.968,0-1.242-.766-2.943-4.239-4.24l-.02-12.954c0-.03-.007-.056-.009-.086a1.153,1.153,0,0,0-.011-.115,1.455,1.455,0,0,0-.047-.205c-.007-.024-.008-.049-.016-.072L22.886.942A1.426,1.426,0,0,0,21.546,0H7.29A1.419,1.419,0,0,0,5.941.973L4.357,5.725c-.007.019-.007.038-.012.057A1.359,1.359,0,0,0,4.3,6c0,.036-.009.072-.01.108s-.008.049-.008.073L4.3,19.209C1.018,20.5.3,22.159.3,23.361c0,2.779,4.481,5.769,14.318,5.769a35.5,35.5,0,0,0,6.787-.588L52.505,43.9c-4.986,1.024-7.316,3.137-7.316,5.14s2.3,4.085,7.207,5.117L21.665,69.335c-.375-.083-.756-.158-1.142-.226L24.2,65.5a14.3,14.3,0,0,0,.247-20.115,14.092,14.092,0,0,0-20.015-.245,14.305,14.305,0,0,0-.246,20.116l3.769,3.885C3.769,69.911,0,71.578,0,74.362S4.481,80.13,14.318,80.13s14.318-2.99,14.318-5.768c0-1.616-1.246-2.853-3.116-3.758L57.584,54.769q.926.04,1.923.041c9.837,0,14.318-2.99,14.318-5.768s-4.481-5.769-14.318-5.769M8.315,2.846H20.547l.682,1.9h-.515L7.679,4.752ZM21.832,7.591l.018,12.726H7.15L7.131,7.6ZM3.143,23.361c0-.146.332-.583,1.273-1.08a1.425,1.425,0,0,0,1.315.881H23.275a1.4,1.4,0,0,0,1.346-.981c1.086.534,1.467,1.017,1.467,1.179,0,.752-3.945,2.925-11.473,2.925S3.143,24.113,3.143,23.361M6.426,47.166a11.21,11.21,0,0,1,7.89-3.233h.142a11.187,11.187,0,0,1,7.948,3.428,11.454,11.454,0,0,1-.2,16.1l-8.087,7.942L6.229,63.271a11.455,11.455,0,0,1,.2-16.105m19.365,27.2c0,.752-3.945,2.923-11.473,2.923S2.846,75.114,2.846,74.362c0-.4,1.905-2.076,7.55-2.707l2.68,2.764a1.43,1.43,0,0,0,1.006.431H14.1a1.406,1.406,0,0,0,1-.407l2.868-2.818c5.849.6,7.83,2.313,7.83,2.738m33.717-22.4c-7.527,0-11.473-2.172-11.473-2.924s3.945-2.925,11.473-2.925S70.98,48.29,70.98,49.042s-3.945,2.924-11.473,2.924" fill="#fff"/>
    <path id="Tracciato_59" data-name="Tracciato 59" d="M14.668,64.743a7.413,7.413,0,1,0-.044,0Zm0-.263Zm-3.032-3.86a4.234,4.234,0,1,1,5.987.073,4.341,4.341,0,0,1-3.009,1.2,4.2,4.2,0,0,1-2.978-1.276" transform="translate(-0.35 -2.331)" fill="#fff"/>
  </g>
</svg>
