<svg id="Raggruppa_125" data-name="Raggruppa 125" xmlns="http://www.w3.org/2000/svg" xmlns:xlink="http://www.w3.org/1999/xlink" width="71.977" height="64.197" viewBox="0 0 71.977 64.197">
  <defs>
    <clipPath id="clip-path">
      <rect id="Rettangolo_9" data-name="Rettangolo 9" width="71.977" height="64.197" fill="#fff"/>
    </clipPath>
  </defs>
  <g id="Raggruppa_12" data-name="Raggruppa 12" transform="translate(0 0)" clip-path="url(#clip-path)">
    <path id="Tracciato_53" data-name="Tracciato 53" d="M15.791,16.8a8.4,8.4,0,1,0-8.4-8.4,8.411,8.411,0,0,0,8.4,8.4M10.145,8.4a5.646,5.646,0,1,1,5.646,5.645A5.652,5.652,0,0,1,10.145,8.4" transform="translate(-0.34 0)" fill="#fff"/>
    <path id="Tracciato_54" data-name="Tracciato 54" d="M37.414,16.8a8.4,8.4,0,1,0-8.4-8.4,8.411,8.411,0,0,0,8.4,8.4M31.768,8.4a5.646,5.646,0,1,1,5.646,5.645A5.652,5.652,0,0,1,31.768,8.4" transform="translate(-1.337 0)" fill="#fff"/>
    <path id="Tracciato_55" data-name="Tracciato 55" d="M45.521,26.239a1.38,1.38,0,0,0-1.378,1.377V60.645a1.79,1.79,0,0,1-1.652,2.005,1.974,1.974,0,0,1-1.936-2.005v-15.1a3.2,3.2,0,0,0-6.39,0v15.1a1.974,1.974,0,0,1-1.936,2.005,1.79,1.79,0,0,1-1.653-2.005V27.616a1.378,1.378,0,0,0-2.756,0V60.645a4.494,4.494,0,0,0,4.409,4.761,4.733,4.733,0,0,0,4.692-4.761v-15.1a.439.439,0,0,1,.879,0v15.1a4.733,4.733,0,0,0,4.692,4.761A4.494,4.494,0,0,0,46.9,60.645V27.616a1.379,1.379,0,0,0-1.377-1.377" transform="translate(-1.282 -1.209)" fill="#fff"/>
    <path id="Tracciato_56" data-name="Tracciato 56" d="M58.85,16.8a8.4,8.4,0,1,0-8.4-8.4,8.411,8.411,0,0,0,8.4,8.4M53.2,8.4a5.646,5.646,0,1,1,5.646,5.645A5.652,5.652,0,0,1,53.2,8.4" transform="translate(-2.324 0)" fill="#fff"/>
    <path id="Tracciato_57" data-name="Tracciato 57" d="M69.476,20.872a8.482,8.482,0,0,0-6.036-2.5H8.537A8.536,8.536,0,0,0,0,26.909V39.446a4.259,4.259,0,0,0,4.183,4.509A4.4,4.4,0,0,0,5.91,43.6V60.283a4.493,4.493,0,0,0,4.408,4.76,4.732,4.732,0,0,0,4.692-4.76v-15.1a.439.439,0,1,1,.879,0v15.1a4.732,4.732,0,0,0,4.691,4.76,4.493,4.493,0,0,0,4.409-4.76V27.254a1.378,1.378,0,0,0-2.756,0V60.283a1.79,1.79,0,0,1-1.653,2.005,1.974,1.974,0,0,1-1.936-2.005v-15.1a3.2,3.2,0,0,0-6.39,0v15.1a1.974,1.974,0,0,1-1.936,2.005,1.79,1.79,0,0,1-1.652-2.005V27.254a1.378,1.378,0,1,0-2.756,0V39.136a1.388,1.388,0,0,0-.036.31A1.724,1.724,0,0,1,4.183,41.2c-.981,0-1.428-.909-1.428-1.753V26.909a5.783,5.783,0,0,1,5.782-5.781h54.9a5.781,5.781,0,0,1,5.781,5.781V39.446c0,.844-.446,1.753-1.427,1.753a1.724,1.724,0,0,1-1.69-1.753,1.362,1.362,0,0,0-.037-.314V27.254a1.378,1.378,0,0,0-2.756,0V60.283a1.79,1.79,0,0,1-1.652,2.005,1.974,1.974,0,0,1-1.936-2.005v-15.1a3.195,3.195,0,0,0-6.389,0v15.1a1.974,1.974,0,0,1-1.936,2.005,1.79,1.79,0,0,1-1.652-2.005V27.254a1.378,1.378,0,1,0-2.756,0V60.283a4.493,4.493,0,0,0,4.408,4.76,4.732,4.732,0,0,0,4.692-4.76v-15.1a.439.439,0,1,1,.879,0v15.1a4.732,4.732,0,0,0,4.692,4.76,4.493,4.493,0,0,0,4.408-4.76V43.6a4.392,4.392,0,0,0,1.728.356,4.259,4.259,0,0,0,4.183-4.509V26.909a8.482,8.482,0,0,0-2.5-6.036" transform="translate(0 -0.847)" fill="#fff"/>
  </g>
</svg>
