<svg id="Raggruppa_129" data-name="Raggruppa 129" xmlns="http://www.w3.org/2000/svg" xmlns:xlink="http://www.w3.org/1999/xlink" width="74.425" height="73.736" viewBox="0 0 74.425 73.736">
  <defs>
    <clipPath id="clip-path">
      <rect id="Rettangolo_14" data-name="Rettangolo 14" width="74.425" height="73.736" fill="#fff"/>
    </clipPath>
  </defs>
  <g id="Raggruppa_22" data-name="Raggruppa 22" transform="translate(0 0)" clip-path="url(#clip-path)">
    <path id="Tracciato_69" data-name="Tracciato 69" d="M32.6,54.951H23.437a1.571,1.571,0,0,0,0,3.141h7.6v9.953H18.916a4.977,4.977,0,0,1-4.31-7.465L16.5,57.307c.011-.021.018-.043.029-.064l5-8.646,2.042,1.179a1.57,1.57,0,0,0,2.338-1.6L23.379,31.6a1.571,1.571,0,0,0-2.124-1.227l-15.619,6.1A1.57,1.57,0,0,0,5.422,39.3l2.055,1.187L1.253,51.278a9.448,9.448,0,0,0,3.42,12.85l9.513,5.547a8.06,8.06,0,0,0,4.73,1.51H32.6a1.572,1.572,0,0,0,1.57-1.57V56.521a1.573,1.573,0,0,0-1.57-1.57M10.448,38.578l-.627-.362,10.747-4.2,1.738,11.407-.572-.331a1.57,1.57,0,0,0-2.145.574L13.768,55.738c-.011.019-.017.04-.028.06L11.886,59.01A8.052,8.052,0,0,0,10.853,64.1l-4.6-2.681a6.3,6.3,0,0,1-2.28-8.569L10.982,40.7a1.592,1.592,0,0,0-.533-2.12" transform="translate(0 -1.395)" fill="#fff"/>
    <path id="Tracciato_70" data-name="Tracciato 70" d="M37.014,20.886a1.569,1.569,0,0,0-2.876-.379l-3.8,6.579-8.62-4.978,6.058-10.494a4.976,4.976,0,0,1,8.619,0l1.89,3.274c.012.021.03.037.043.059L43.319,23.6l-2.043,1.18a1.571,1.571,0,0,0,.214,2.823l15.619,6.1a1.57,1.57,0,0,0,2.124-1.226L61.756,15.9a1.57,1.57,0,0,0-2.337-1.6l-2.055,1.186L51.129,4.7A9.446,9.446,0,0,0,38.291,1.239L28.732,6.705a8.062,8.062,0,0,0-3.674,3.341L18.215,21.9a1.571,1.571,0,0,0,.575,2.144l11.339,6.547a1.57,1.57,0,0,0,2.146-.575l4.583-7.937a1.561,1.561,0,0,0,.155-1.192m11.4-14.612L55.43,18.418a1.572,1.572,0,0,0,2.094.6c.025-.012.047-.024.064-.034l.572-.33L56.423,30.062l-10.747-4.2.571-.331a1.572,1.572,0,0,0,.576-2.143L41.012,13.311c-.011-.022-.029-.037-.04-.057l-1.853-3.208a8.06,8.06,0,0,0-3.888-3.439L39.85,3.966a6.3,6.3,0,0,1,8.562,2.309" transform="translate(-0.829 -0.001)" fill="#fff"/>
    <path id="Tracciato_71" data-name="Tracciato 71" d="M75.078,46.078,68.235,34.224a1.569,1.569,0,0,0-2.145-.574L54.75,40.2a1.571,1.571,0,0,0-.575,2.145l4.583,7.938a1.571,1.571,0,0,0,2.721-1.571l-3.8-6.577,8.62-4.977,6.058,10.493a4.977,4.977,0,0,1-4.31,7.465h-3.78c-.022,0-.043.006-.065.007l-9.991-.006V52.756a1.571,1.571,0,0,0-2.552-1.227L38.567,62a1.57,1.57,0,0,0,0,2.453L51.66,74.933a1.571,1.571,0,0,0,2.552-1.227V71.334l12.457-.007a9.446,9.446,0,0,0,9.419-9.387l.047-11.014a8.057,8.057,0,0,0-1.057-4.849M52.641,58.255l11.634.006c.022,0,.043-.006.065-.007h3.709a8.054,8.054,0,0,0,4.921-1.648l-.023,5.322a6.3,6.3,0,0,1-6.28,6.26l-14.026.008a1.576,1.576,0,0,0-1.569,1.513v.732l-9.01-7.208,9.01-7.208v.661a1.571,1.571,0,0,0,1.569,1.57" transform="translate(-1.75 -1.541)" fill="#fff"/>
  </g>
</svg>
