<svg id="Raggruppa_124" data-name="Raggruppa 124" xmlns="http://www.w3.org/2000/svg" xmlns:xlink="http://www.w3.org/1999/xlink" width="66.067" height="73.736" viewBox="0 0 66.067 73.736">
  <defs>
    <clipPath id="clip-path">
      <rect id="Rettangolo_8" data-name="Rettangolo 8" width="66.067" height="73.736" fill="#fff"/>
    </clipPath>
  </defs>
  <g id="Raggruppa_10" data-name="Raggruppa 10" transform="translate(0 0)" clip-path="url(#clip-path)">
    <path id="Tracciato_49" data-name="Tracciato 49" d="M46.711,21.89a9.258,9.258,0,0,0-4.918-1.408H26.227a9.282,9.282,0,0,0-9.282,9.282v9.795a4.475,4.475,0,0,0,4.38,4.749,4.677,4.677,0,0,0,2.273-.589V60.065A4.739,4.739,0,0,0,28.233,65.1a5,5,0,0,0,4.954-5.032V46.792a.823.823,0,1,1,1.646,0V60.065A5,5,0,0,0,39.787,65.1a4.739,4.739,0,0,0,4.635-5.032V46.024a1.223,1.223,0,1,0-2.446,0V60.065a2.326,2.326,0,0,1-2.189,2.586,2.55,2.55,0,0,1-2.508-2.586V46.792a3.269,3.269,0,1,0-6.537,0V60.065a2.551,2.551,0,0,1-2.509,2.586,2.326,2.326,0,0,1-2.189-2.586V30.153a1.223,1.223,0,1,0-2.446,0v9.418a2.284,2.284,0,0,1-2.272,2.29,2.066,2.066,0,0,1-1.935-2.3V29.764a6.836,6.836,0,0,1,6.837-6.837H41.794a6.819,6.819,0,0,1,3.62,1.036,1.223,1.223,0,0,0,1.3-2.073" transform="translate(-0.781 -0.944)" fill="#fff"/>
    <path id="Tracciato_50" data-name="Tracciato 50" d="M39.669,25.453a6.123,6.123,0,0,0-6.116,6.116c0,2.681,1.593,5.525,4.732,8.455A32.3,32.3,0,0,0,43.1,43.707l.226.137a1.224,1.224,0,0,0,1.27,0l.226-.137a32.245,32.245,0,0,0,4.817-3.684c3.14-2.93,4.732-5.773,4.732-8.455a6.115,6.115,0,0,0-10.411-4.352,6.134,6.134,0,0,0-4.3-1.764m5.369,4.36a3.67,3.67,0,0,1,6.893,1.755c0,4.283-6.343,8.722-7.966,9.787C42.342,40.29,36,35.851,36,31.569a3.67,3.67,0,0,1,6.893-1.755,1.222,1.222,0,0,0,2.145,0" transform="translate(-1.546 -1.173)" fill="#fff"/>
    <path id="Tracciato_51" data-name="Tracciato 51" d="M48.924,30.806a.921.921,0,0,1,.92.92.964.964,0,0,0,1.929,0,2.851,2.851,0,0,0-2.848-2.847.964.964,0,1,0,0,1.928" transform="translate(-2.209 -1.331)" fill="#fff"/>
    <path id="Tracciato_52" data-name="Tracciato 52" d="M65.9,16.669a2.893,2.893,0,0,0-2.635-2.528A108.243,108.243,0,0,1,44.3,10.016a1.735,1.735,0,0,0-2.114.934,9.31,9.31,0,1,0-.156.614,1.739,1.739,0,0,0,1.19,1.759A112.029,112.029,0,0,0,62.49,17.551,59.819,59.819,0,0,1,60.223,37.38,53.394,53.394,0,0,1,51.65,54.9,52.308,52.308,0,0,1,33.034,70.22,52.315,52.315,0,0,1,14.417,54.9,53.4,53.4,0,0,1,5.843,37.38,59.791,59.791,0,0,1,3.576,17.551,112.667,112.667,0,0,0,23.1,13.241a1.74,1.74,0,0,0-1.092-3.3A108.81,108.81,0,0,1,2.8,14.141,2.9,2.9,0,0,0,.161,16.67,62.365,62.365,0,0,0,2.5,38.334a56.845,56.845,0,0,0,9.137,18.654,55.805,55.805,0,0,0,20,16.421,3.16,3.16,0,0,0,2.8,0,55.813,55.813,0,0,0,20-16.421,56.872,56.872,0,0,0,9.136-18.654A62.169,62.169,0,0,0,65.9,16.669M39.92,9.135a6.69,6.69,0,1,1-6.689-6.689A6.7,6.7,0,0,1,39.92,9.135" transform="translate(0 0)" fill="#fff"/>
  </g>
</svg>
