<svg id="Raggruppa_127" data-name="Raggruppa 127" xmlns="http://www.w3.org/2000/svg" xmlns:xlink="http://www.w3.org/1999/xlink" width="68.332" height="73.736" viewBox="0 0 68.332 73.736">
  <defs>
    <clipPath id="clip-path">
      <rect id="Rettangolo_11" data-name="Rettangolo 11" width="68.332" height="73.736" fill="#fff"/>
    </clipPath>
  </defs>
  <g id="Raggruppa_16" data-name="Raggruppa 16" transform="translate(0 0)" clip-path="url(#clip-path)">
    <path id="Tracciato_60" data-name="Tracciato 60" d="M3.608,1.924c1.261,3.046,1.035,5.644.816,8.168-.23,2.643-.447,5.139,1.009,7.755a8.168,8.168,0,0,0,5.149,4.031,7.661,7.661,0,0,0,3.661.025l.172-.044.046-.17a3.617,3.617,0,0,0-.14-2.451l-.114-.217-.236.068a5.134,5.134,0,0,1-2.708.09,5.416,5.416,0,0,1-3.4-2.686C6.824,14.621,7,12.632,7.2,10.327a21.541,21.541,0,0,0-.2-6.9c5.317,1.677,9.1,4.152,10.682,7a5.711,5.711,0,0,1-.331,6.276,13.179,13.179,0,0,0-3.888-5.055,1.4,1.4,0,0,0-1.023-.3,1.393,1.393,0,0,0-.729,2.467A9.288,9.288,0,0,1,15.4,20.3a5.35,5.35,0,0,1-.926,3.406l-.324.47h3.26l.079-.179a8.267,8.267,0,0,0,.665-4.076A8.5,8.5,0,0,0,20.111,9.072C17.9,5.1,12.617,1.89,5.233.042A1.4,1.4,0,0,0,3.84.482a1.387,1.387,0,0,0-.232,1.441Z" transform="translate(-0.161 0)" fill="#fff"/>
    <path id="Tracciato_61" data-name="Tracciato 61" d="M52.52,64.541h4.965a1.45,1.45,0,0,0,0-2.9H52.52a1.45,1.45,0,0,0,0,2.9" transform="translate(-2.353 -2.84)" fill="#fff"/>
    <path id="Tracciato_62" data-name="Tracciato 62" d="M38.505,64.541a1.45,1.45,0,1,0,0-2.9H33.541a1.45,1.45,0,1,0,0,2.9Z" transform="translate(-1.478 -2.84)" fill="#fff"/>
    <path id="Tracciato_63" data-name="Tracciato 63" d="M66.883,72.092h-4.12V41.483L44.654,52.007V41.483l-17.547,10.2v3.352l14.649-8.51v25.57H25.324V29.034A1.826,1.826,0,0,0,23.5,27.21H8.16a1.826,1.826,0,0,0-1.823,1.824V72.092H1.449a1.449,1.449,0,0,0,0,2.9H66.883a1.449,1.449,0,0,0,0-2.9m-7.018-25.57v25.57H44.654V55.361ZM22.34,72.007H9.321V46.19H22.34Zm0-28.715H9.321V37.428H22.34Zm0-8.763H9.321V30.195H22.34Z" transform="translate(0 -1.254)" fill="#fff"/>
  </g>
</svg>
