<svg xmlns="http://www.w3.org/2000/svg" width="562.182" height="548.656" viewBox="0 0 562.182 548.656">
  <path id="Tracciato_223" data-name="Tracciato 223" d="M454.372,33.956c-22.852,15.186-82.094,81-82.094,81-11.867,12.385-17.715,11.308-17.715,11.308-7.321.632-9.218-8.011-9.218-8.011q-1.293-5.095-2.55-9.892v-.287c-9.683-37.06-16.372-58.8-23.369-75.306,0,0,10.963-.674,16.889-1.306,5.941-.632,5.058,1.035,5.769,3.7,0,0,1.515,4.7,3.376,4.7A2.226,2.226,0,0,0,347.78,38c1.207-5.058,1.244-26.128-8.685-27.434-9.892-1.3-21.9,0-21.9,0-3.794-3.778-6.365-6.94-11.522-8.607C299.37-.862,281.964.193,281.964.193a93.076,93.076,0,0,0-14.517,1.15c-7,1.155-12.557,6.271-17.521,15.071-19.246,34.144-33.089,88.265-35.581,97.891,0,0-2.514,11.157-8.053,10.6,0,0-4.541,2.435-16.393-9.95,0,0-59.237-65.816-82.11-81C86.908,20.092,15.135,6.981,1.961,128.414c-12.73,117.1,39.244,251.032,76.743,420.242,0,0,44.02-27.7,52.434-82.209l3.893,6c3.224,4.635,13.132,5.79,20.186-3.836l17.354-23.641c7.055-9.626,1.186-17.809.073-19.5l-3.715-5.9a2.272,2.272,0,0,1,.591-3.031l26.363-19a2.332,2.332,0,0,1,3.1.361l4.489,5.33c1.285,1.573,7.321,9.626,18.729,5.962l28.051-9.046c11.407-3.684,11.538-13.691,11.637-15.724l.476-6.9a2.344,2.344,0,0,1,2.284-2.163H297.51a2.339,2.339,0,0,1,2.3,2.163l.46,6.9c.1,2.033.251,12.04,11.637,15.724l28.072,9.046c11.386,3.663,17.443-4.389,18.708-5.962l4.489-5.33a2.334,2.334,0,0,1,3.1-.361l26.379,19a2.263,2.263,0,0,1,.575,3.031l-3.715,5.9c-1.113,1.688-6.961,9.871.073,19.5l17.354,23.641c7.055,9.626,16.983,8.471,20.187,3.836l3.893-6c8.413,54.508,52.434,82.209,52.434,82.209,37.5-169.21,89.493-303.142,76.764-420.242C547.027,6.981,475.253,20.092,454.372,33.956M185.761,132.443c9.584,9.317,15.8,8.836,18.347,8.722a9.346,9.346,0,0,0,5.576-1.939c-2.315,12.212-4.081,31.364-4.081,31.463a15.014,15.014,0,0,1-5.079,8.377c-3.261,2.55-10.122,10.122-25.632,4.964-19.021-6.323-23.735-18.154-23.432-26.839.172-4.5,1.845-11.444,2.665-14.935,2.477-10.273,6.48-23.735,11.162-31.056,1.876,2.012,20.474,21.242,20.474,21.242M120.828,65.226A411.515,411.515,0,0,1,154.512,99.2c-2.764,5.1-10.415,22.219-13.325,35.445-1.15,5.179-3.815,19.042-13.764,22.2-4.928,1.531-12.291.841-18.389-2.743-13.916-8.3-18.88-19.518-18.88-27.758,0-6.114,3.125-15.243,3.256-15.682,6.349-22.261,21.859-41.24,27.419-45.436M61.24,42.447c15.99-6.344,31.5-1.228,39.338,4.87,2.858,2.169,7.577,5.236,9.589,7.844C101.519,61.85,87.6,75.614,77.612,107.919c-.862,3.146-3.527,11.157-14.376,6.71,0,0-18.812-6.689-33.381,3.527-6.213,4.316-9.584,8.612-13.189,14.59C18.72,83.824,41.644,50.27,61.24,42.447m27,478.277C74.2,456.534,52.843,374.732,52.613,374.042c-26.765-98.7-31.9-144.075-31.96-144.4-.037-.418-3.679-22.522-4.008-40.8-.533-30.214,4.97-52.413,28.6-59.049,3.893-.784,12.484-3.026,23.332,5.487,0,0-1.761,9.871-2.263,15.87-.711,8.439-1.458,14.632-1.3,22.606,1.86,96.757,23.865,164.987,38.267,219.36,6.077,22.93,11.366,40.3,12.385,51.859,3.3,37.9-20.38,68.1-27.434,75.75M156.33,409.587c-5.309,3.851-4.3,11.961-2.336,15.05l7.17,11.178-18.232,24.9c-24.236-68.288-60.7-188-61.1-277.124q-.023-6.67.272-13.116c.5-10.639.705-15.755,1.683-22.162,2.362,11.967,19.079,31.887,49.638,24.639-.136,2.78-.23,5.273-.23,8.549,0,10.315.23,31.578,1.416,43.54C142.221,300.957,156.717,361,170.5,399.387Zm52.11-24.179c-2.3-2.78-9.835-6.266-15.144-2.451l-8.627,6.229c-29.143-87.978-36.255-167.407-35.889-208.339,2.968,14.266,34.74,30.272,55.846,11.946-1.265,15.875-3.182,93.747,12.327,202.837-2.169-2.628-8.512-10.221-8.512-10.221m13.44-101.627c-1.63-22.026-4.907-120.11,7.248-158.4,3.47,12.369,24.268,22.914,42.9,11.162V283.53c-3.313-9.239-34.41-18.384-50.15.251m50.767,78.107-14.574.209c-6.537,0-10.561,7.19-10.791,10.754,0,.021-.611,9.876-.826,13.268l-15.7,5.064c-7.645-58.265-6.595-75.557-6.595-75.557,0-19.209,11.695-25.078,23.719-24.984,8.836.057,24.769,3.125,24.769,28.856Zm8.528-252.051a1.836,1.836,0,0,0-1.782-1.38,1.8,1.8,0,0,0-1.8,1.38c-.094.554-3.182,12.672-17.636,15.473-6.689,1.265-12.27.073-16.544-3.627-6.1-5.252-7.859-13.55-7.572-19.5a61.4,61.4,0,0,1,1.338-9.432c5.294-23.62,21.378-78.41,36.37-78.41h.172c14.8-1.495,31.636-.847,33.109,2.493,1.134,2.681,1.9,6.365,1.191,7.436-.057.1-.193.272-.8.272-1.515-.042-14.919-.157-18.081,3.506a3.1,3.1,0,0,0-.768,2.644c.366,2.263,2.7,2.973,5.408,3.8,4.1,1.207,10.294,3.067,14.4,10.676,5.351,9.934,12.9,32.3,16.408,47.584a54.424,54.424,0,0,1,1.458,9.432c.366,5.947-1.458,14.726-7.551,19.977-4.274,3.721-12.98,4.907-19.669,3.606a22.182,22.182,0,0,1-17.642-15.933m49.847,281.21-15.316-4.928s-.8-13.247-.8-13.268c-.251-3.564-4.259-10.754-10.833-10.754l-14.532-.209V319.5c0-25.731,15.933-28.8,24.748-28.856,12.024-.094,23.719,5.774,23.719,24.984,0,0,.037,16.832-6.981,75.421m9.244-107.266c-15.687-18.634-46.821-9.49-50.119-.251V136.545c18.619,11.752,39.437,1.207,42.886-11.162,12.2,38.288,8.857,136.372,7.232,158.4M461.583,47.318c7.859-6.1,23.369-11.214,39.375-4.87,19.559,7.823,42.5,41.376,44.538,90.3-3.606-5.978-6.976-10.273-13.174-14.59-14.585-10.216-33.4-3.527-33.4-3.527-10.828,4.447-13.493-3.564-14.376-6.71-9.991-32.3-23.907-46.069-32.571-52.758,2.028-2.608,6.746-5.675,9.6-7.844M441.318,65.226c5.6,4.2,21.085,23.175,27.434,45.436.151.439,3.256,9.568,3.256,15.682,0,8.241-4.944,19.46-18.88,27.758-6.1,3.585-13.461,4.275-18.389,2.743-9.95-3.161-12.615-17.025-13.764-22.2C418.064,121.417,410.43,104.3,407.65,99.2a416.2,416.2,0,0,1,33.669-33.972m-83.244,75.938c2.55.115,8.742.6,18.347-8.722,0,0,18.577-19.23,20.458-21.242,4.677,7.321,8.68,20.782,11.172,31.056.8,3.491,2.477,10.43,2.649,14.935.3,8.685-4.389,20.516-23.411,26.839-15.489,5.158-22.392-2.414-25.652-4.964a15.014,15.014,0,0,1-5.079-8.377c0-.1-1.766-19.251-4.081-31.463a9.394,9.394,0,0,0,5.6,1.939m10.791,241.793c-5.33-3.815-12.823-.329-15.144,2.451,0,0-6.328,7.593-8.513,10.221C360.7,286.54,358.8,208.668,357.536,192.793c21.106,18.326,52.894,2.32,55.846-11.946.387,40.9-6.746,120.4-35.848,208.339Zm50.364,77.757L401,435.814l7.19-11.178c1.939-3.088,2.952-11.2-2.341-15.05l-14.067-10.6c13.477-38.633,28.391-100.232,35.754-173.944,1.207-11.961,1.437-33.224,1.437-43.54,0-3.276-.094-5.769-.209-8.549,30.538,7.248,47.255-12.672,49.633-24.639.941,6.407,1.191,11.522,1.667,22.162q.29,6.443.272,13.116c-.4,89.128-37.154,211.939-61.1,277.124m122.3-231.076c-.057.329-5.2,45.708-32,144.4-.209.69-21.566,82.491-35.6,146.682-7.034-7.65-30.732-37.849-27.414-75.75,1-11.559,6.287-28.929,12.364-51.859,14.4-54.372,36.428-122.6,38.267-219.36.157-7.974-.575-14.167-1.3-22.606-.46-6-2.263-15.87-2.263-15.87,10.848-8.512,19.46-6.271,23.348-5.487,23.62,6.636,29.122,28.835,28.589,59.049-.308,18.274-3.951,40.378-3.987,40.8M281.081,420.78c32.111,0,61.735,12.024,83.453,33.9,21.8,21.947,33.8,52.01,33.8,84.581,0,.6-.016,1.207-.016,1.787H381.809c0-.58.037-1.191.037-1.787,0-57.664-43.31-101.131-100.765-101.131S180.316,481.6,180.316,539.26c0,.6.037,1.207.057,1.787H163.866c-.021-.58-.037-1.191-.037-1.787,0-32.571,12.019-62.634,33.8-84.581,21.718-21.874,51.341-33.9,83.453-33.9m0,49.56c18.671,0,35.926,6.976,48.582,19.711,12.688,12.787,19.669,30.288,19.669,49.251,0,.59-.078,1.186-.094,1.8h-18.31c.037-.941.136-1.845.136-2.8,0-27.936-21.477-49.042-49.983-49.042-28.49,0-49.962,21.106-49.962,49.042,0,.956.078,1.86.136,2.8H212.923c-.016-.617-.094-1.212-.094-1.8,0-18.964,6.981-36.464,19.69-49.251,12.635-12.735,29.89-19.711,48.561-19.711" transform="translate(0)" fill="#fff" opacity="0.149"/>
</svg>
